solid CATIA STL
  facet normal  0.000000e+000  0.000000e+000  1.000000e+000
    outer loop
      vertex -1.322068e+001 -5.740276e+001 -5.400000e+001
      vertex -1.427919e+001 -5.516870e+001 -5.400000e+001
      vertex -1.361119e+002 -5.674893e+001 -5.400000e+001
    endloop
  endfacet
  facet normal  0.000000e+000  0.000000e+000  1.000000e+000
    outer loop
      vertex -1.429876e+002 -6.000672e+001 -5.400000e+001
      vertex -1.440461e+002 -5.777267e+001 -5.400000e+001
      vertex -1.438268e+002 -1.012388e+002 -5.400000e+001
    endloop
  endfacet
  facet normal  0.000000e+000  0.000000e+000  1.000000e+000
    outer loop
      vertex -1.500000e+002 -2.000000e+000 -5.400000e+001
      vertex -1.500000e+002 -9.200000e+001 -5.400000e+001
      vertex -1.440461e+002 -5.777267e+001 -5.400000e+001
    endloop
  endfacet
  facet normal  0.000000e+000  -0.000000e+000  1.000000e+000
    outer loop
      vertex -1.500000e+002 -2.000000e+000 -5.400000e+001
      vertex -1.440461e+002 -5.777267e+001 -5.400000e+001
      vertex -1.435893e+002 -5.534310e+001 -5.400000e+001
    endloop
  endfacet
  facet normal  0.000000e+000  -0.000000e+000  1.000000e+000
    outer loop
      vertex -1.500000e+002 -2.000000e+000 -5.400000e+001
      vertex -1.435893e+002 -5.534310e+001 -5.400000e+001
      vertex -1.417917e+002 -5.364603e+001 -5.400000e+001
    endloop
  endfacet
  facet normal  0.000000e+000  -0.000000e+000  1.000000e+000
    outer loop
      vertex -1.500000e+002 -2.000000e+000 -5.400000e+001
      vertex -1.417917e+002 -5.364603e+001 -5.400000e+001
      vertex -1.393399e+002 -5.332967e+001 -5.400000e+001
    endloop
  endfacet
  facet normal  -0.000000e+000  -0.000000e+000  1.000000e+000
    outer loop
      vertex -1.500000e+002 -2.000000e+000 -5.400000e+001
      vertex -1.393399e+002 -5.332967e+001 -5.400000e+001
      vertex -1.371704e+002 -5.451488e+001 -5.400000e+001
    endloop
  endfacet
  facet normal  -0.000000e+000  -0.000000e+000  1.000000e+000
    outer loop
      vertex -1.500000e+002 -2.000000e+000 -5.400000e+001
      vertex -1.371704e+002 -5.451488e+001 -5.400000e+001
      vertex -1.361119e+002 -5.674893e+001 -5.400000e+001
    endloop
  endfacet
  facet normal  0.000000e+000  -0.000000e+000  9.999999e-001
    outer loop
      vertex -1.500000e+002 -2.000000e+000 -5.400000e+001
      vertex -1.361119e+002 -5.674893e+001 -5.400000e+001
      vertex -1.427919e+001 -5.516870e+001 -5.400000e+001
    endloop
  endfacet
  facet normal  0.000000e+000  -0.000000e+000  9.999999e-001
    outer loop
      vertex -1.500000e+002 -2.000000e+000 -5.400000e+001
      vertex -1.427919e+001 -5.516870e+001 -5.400000e+001
      vertex -1.382241e+001 -5.273914e+001 -5.400000e+001
    endloop
  endfacet
  facet normal  0.000000e+000  -0.000000e+000  1.000000e+000
    outer loop
      vertex -1.500000e+002 -2.000000e+000 -5.400000e+001
      vertex -1.382241e+001 -5.273914e+001 -5.400000e+001
      vertex -1.202480e+001 -5.104206e+001 -5.400000e+001
    endloop
  endfacet
  facet normal  0.000000e+000  -0.000000e+000  1.000000e+000
    outer loop
      vertex -1.500000e+002 -2.000000e+000 -5.400000e+001
      vertex -1.202480e+001 -5.104206e+001 -5.400000e+001
      vertex -9.572989e+000 -5.072571e+001 -5.400000e+001
    endloop
  endfacet
  facet normal  -0.000000e+000  0.000000e+000  9.999999e-001
    outer loop
      vertex  0.000000e+000 -2.000000e+000 -5.400000e+001
      vertex -1.500000e+002 -2.000000e+000 -5.400000e+001
      vertex -9.572989e+000 -5.072571e+001 -5.400000e+001
    endloop
  endfacet
  facet normal  -0.000000e+000  0.000000e+000  1.000000e+000
    outer loop
      vertex  0.000000e+000 -2.000000e+000 -5.400000e+001
      vertex -9.572989e+000 -5.072571e+001 -5.400000e+001
      vertex -7.403486e+000 -5.191092e+001 -5.400000e+001
    endloop
  endfacet
  facet normal  -0.000000e+000  0.000000e+000  1.000000e+000
    outer loop
      vertex  0.000000e+000 -2.000000e+000 -5.400000e+001
      vertex -7.403486e+000 -5.191092e+001 -5.400000e+001
      vertex -6.344966e+000 -5.414497e+001 -5.400000e+001
    endloop
  endfacet
  facet normal  0.000000e+000  0.000000e+000  1.000000e+000
    outer loop
      vertex  0.000000e+000 -9.200000e+001 -5.400000e+001
      vertex  0.000000e+000 -2.000000e+000 -5.400000e+001
      vertex -6.344966e+000 -5.414497e+001 -5.400000e+001
    endloop
  endfacet
  facet normal  0.000000e+000  0.000000e+000  1.000000e+000
    outer loop
      vertex  0.000000e+000 -9.200000e+001 -5.400000e+001
      vertex -6.344966e+000 -5.414497e+001 -5.400000e+001
      vertex -6.801750e+000 -5.657454e+001 -5.400000e+001
    endloop
  endfacet
  facet normal  0.000000e+000  0.000000e+000  1.000000e+000
    outer loop
      vertex  0.000000e+000 -9.200000e+001 -5.400000e+001
      vertex -6.801750e+000 -5.657454e+001 -5.400000e+001
      vertex -8.599360e+000 -5.827161e+001 -5.400000e+001
    endloop
  endfacet
  facet normal  0.000000e+000  0.000000e+000  1.000000e+000
    outer loop
      vertex -1.000000e+001 -1.020000e+002 -5.400000e+001
      vertex -6.173166e+000 -1.012388e+002 -5.400000e+001
      vertex -8.599360e+000 -5.827161e+001 -5.400000e+001
    endloop
  endfacet
  facet normal  0.000000e+000  0.000000e+000  1.000000e+000
    outer loop
      vertex -1.000000e+001 -1.020000e+002 -5.400000e+001
      vertex -8.599360e+000 -5.827161e+001 -5.400000e+001
      vertex -1.105117e+001 -5.858796e+001 -5.400000e+001
    endloop
  endfacet
  facet normal  0.000000e+000  0.000000e+000  1.000000e+000
    outer loop
      vertex -1.000000e+001 -1.020000e+002 -5.400000e+001
      vertex -1.105117e+001 -5.858796e+001 -5.400000e+001
      vertex -1.400000e+002 -1.020000e+002 -5.400000e+001
    endloop
  endfacet
  facet normal  0.000000e+000  0.000000e+000  1.000000e+000
    outer loop
      vertex -1.400000e+002 -1.020000e+002 -5.400000e+001
      vertex -1.105117e+001 -5.858796e+001 -5.400000e+001
      vertex -1.322068e+001 -5.740276e+001 -5.400000e+001
    endloop
  endfacet
  facet normal  0.000000e+000  0.000000e+000  1.000000e+000
    outer loop
      vertex -1.400000e+002 -1.020000e+002 -5.400000e+001
      vertex -1.322068e+001 -5.740276e+001 -5.400000e+001
      vertex -1.361119e+002 -5.674893e+001 -5.400000e+001
    endloop
  endfacet
  facet normal  0.000000e+000  0.000000e+000  1.000000e+000
    outer loop
      vertex -1.400000e+002 -1.020000e+002 -5.400000e+001
      vertex -1.361119e+002 -5.674893e+001 -5.400000e+001
      vertex -1.365686e+002 -5.917850e+001 -5.400000e+001
    endloop
  endfacet
  facet normal  0.000000e+000  0.000000e+000  1.000000e+000
    outer loop
      vertex -1.400000e+002 -1.020000e+002 -5.400000e+001
      vertex -1.365686e+002 -5.917850e+001 -5.400000e+001
      vertex -1.383663e+002 -6.087557e+001 -5.400000e+001
    endloop
  endfacet
  facet normal  0.000000e+000  0.000000e+000  1.000000e+000
    outer loop
      vertex -1.400000e+002 -1.020000e+002 -5.400000e+001
      vertex -1.383663e+002 -6.087557e+001 -5.400000e+001
      vertex -1.408181e+002 -6.119193e+001 -5.400000e+001
    endloop
  endfacet
  facet normal  0.000000e+000  0.000000e+000  1.000000e+000
    outer loop
      vertex -1.400000e+002 -1.020000e+002 -5.400000e+001
      vertex -1.408181e+002 -6.119193e+001 -5.400000e+001
      vertex -1.429876e+002 -6.000672e+001 -5.400000e+001
    endloop
  endfacet
  facet normal  0.000000e+000  0.000000e+000  1.000000e+000
    outer loop
      vertex -1.400000e+002 -1.020000e+002 -5.400000e+001
      vertex -1.429876e+002 -6.000672e+001 -5.400000e+001
      vertex -1.438268e+002 -1.012388e+002 -5.400000e+001
    endloop
  endfacet
  facet normal  0.000000e+000  -0.000000e+000  1.000000e+000
    outer loop
      vertex -8.599360e+000 -5.827161e+001 -5.400000e+001
      vertex -6.173166e+000 -1.012388e+002 -5.400000e+001
      vertex -2.928932e+000 -9.907107e+001 -5.400000e+001
    endloop
  endfacet
  facet normal  0.000000e+000  -0.000000e+000  9.999999e-001
    outer loop
      vertex -8.599360e+000 -5.827161e+001 -5.400000e+001
      vertex -2.928932e+000 -9.907107e+001 -5.400000e+001
      vertex -7.612047e-001 -9.582684e+001 -5.400000e+001
    endloop
  endfacet
  facet normal  0.000000e+000  -0.000000e+000  1.000000e+000
    outer loop
      vertex -8.599360e+000 -5.827161e+001 -5.400000e+001
      vertex -7.612047e-001 -9.582684e+001 -5.400000e+001
      vertex  0.000000e+000 -9.200000e+001 -5.400000e+001
    endloop
  endfacet
  facet normal  0.000000e+000  -0.000000e+000  9.999999e-001
    outer loop
      vertex -1.500000e+002 -9.200000e+001 -5.400000e+001
      vertex -1.492388e+002 -9.582684e+001 -5.400000e+001
      vertex -1.440461e+002 -5.777267e+001 -5.400000e+001
    endloop
  endfacet
  facet normal  0.000000e+000  0.000000e+000  1.000000e+000
    outer loop
      vertex -1.440461e+002 -5.777267e+001 -5.400000e+001
      vertex -1.492388e+002 -9.582684e+001 -5.400000e+001
      vertex -1.470711e+002 -9.907107e+001 -5.400000e+001
    endloop
  endfacet
  facet normal  -0.000000e+000  0.000000e+000  1.000000e+000
    outer loop
      vertex -1.440461e+002 -5.777267e+001 -5.400000e+001
      vertex -1.470711e+002 -9.907107e+001 -5.400000e+001
      vertex -1.438268e+002 -1.012388e+002 -5.400000e+001
    endloop
  endfacet
  facet normal  0.000000e+000  0.000000e+000  1.000000e+000
    outer loop
      vertex -1.492388e+002 -9.582684e+001  5.600000e+001
      vertex -1.470711e+002 -9.907107e+001  5.600000e+001
      vertex -1.500000e+002 -9.200000e+001  5.600000e+001
    endloop
  endfacet
  facet normal  -0.000000e+000  0.000000e+000  1.000000e+000
    outer loop
      vertex -1.427919e+001 -5.516870e+001  5.600000e+001
      vertex -1.361119e+002 -5.674893e+001  5.600000e+001
      vertex -1.322068e+001 -5.740276e+001  5.600000e+001
    endloop
  endfacet
  facet normal  -0.000000e+000  0.000000e+000  1.000000e+000
    outer loop
      vertex -8.599360e+000 -5.827161e+001  5.600000e+001
      vertex -1.105117e+001 -5.858796e+001  5.600000e+001
      vertex -1.000000e+001 -1.020000e+002  5.600000e+001
    endloop
  endfacet
  facet normal  0.000000e+000  -0.000000e+000  1.000000e+000
    outer loop
      vertex -1.440461e+002 -5.777267e+001  5.600000e+001
      vertex -1.438268e+002 -1.012388e+002  5.600000e+001
      vertex -1.429876e+002 -6.000672e+001  5.600000e+001
    endloop
  endfacet
  facet normal  0.000000e+000  0.000000e+000  1.000000e+000
    outer loop
      vertex -1.438268e+002 -1.012388e+002  5.600000e+001
      vertex -1.440461e+002 -5.777267e+001  5.600000e+001
      vertex -1.470711e+002 -9.907107e+001  5.600000e+001
    endloop
  endfacet
  facet normal  0.000000e+000  0.000000e+000  1.000000e+000
    outer loop
      vertex  0.000000e+000 -9.200000e+001  5.600000e+001
      vertex  1.421085e-014 -2.000000e+000  5.600000e+001
      vertex -6.344966e+000 -5.414497e+001  5.600000e+001
    endloop
  endfacet
  facet normal  0.000000e+000  0.000000e+000  1.000000e+000
    outer loop
      vertex  0.000000e+000 -9.200000e+001  5.600000e+001
      vertex -6.344966e+000 -5.414497e+001  5.600000e+001
      vertex -6.801750e+000 -5.657454e+001  5.600000e+001
    endloop
  endfacet
  facet normal  0.000000e+000  0.000000e+000  1.000000e+000
    outer loop
      vertex  0.000000e+000 -9.200000e+001  5.600000e+001
      vertex -6.801750e+000 -5.657454e+001  5.600000e+001
      vertex -8.599360e+000 -5.827161e+001  5.600000e+001
    endloop
  endfacet
  facet normal  0.000000e+000  0.000000e+000  9.999999e-001
    outer loop
      vertex  0.000000e+000 -9.200000e+001  5.600000e+001
      vertex -8.599360e+000 -5.827161e+001  5.600000e+001
      vertex -1.000000e+001 -1.020000e+002  5.600000e+001
    endloop
  endfacet
  facet normal  0.000000e+000  0.000000e+000  1.000000e+000
    outer loop
      vertex -1.400000e+002 -1.020000e+002  5.600000e+001
      vertex -1.000000e+001 -1.020000e+002  5.600000e+001
      vertex -1.105117e+001 -5.858796e+001  5.600000e+001
    endloop
  endfacet
  facet normal  0.000000e+000  0.000000e+000  1.000000e+000
    outer loop
      vertex -1.400000e+002 -1.020000e+002  5.600000e+001
      vertex -1.105117e+001 -5.858796e+001  5.600000e+001
      vertex -1.322068e+001 -5.740276e+001  5.600000e+001
    endloop
  endfacet
  facet normal  0.000000e+000  0.000000e+000  1.000000e+000
    outer loop
      vertex -1.400000e+002 -1.020000e+002  5.600000e+001
      vertex -1.322068e+001 -5.740276e+001  5.600000e+001
      vertex -1.361119e+002 -5.674893e+001  5.600000e+001
    endloop
  endfacet
  facet normal  0.000000e+000  0.000000e+000  1.000000e+000
    outer loop
      vertex -1.400000e+002 -1.020000e+002  5.600000e+001
      vertex -1.361119e+002 -5.674893e+001  5.600000e+001
      vertex -1.365686e+002 -5.917850e+001  5.600000e+001
    endloop
  endfacet
  facet normal  0.000000e+000  0.000000e+000  1.000000e+000
    outer loop
      vertex -1.400000e+002 -1.020000e+002  5.600000e+001
      vertex -1.365686e+002 -5.917850e+001  5.600000e+001
      vertex -1.383663e+002 -6.087557e+001  5.600000e+001
    endloop
  endfacet
  facet normal  0.000000e+000  0.000000e+000  1.000000e+000
    outer loop
      vertex -1.400000e+002 -1.020000e+002  5.600000e+001
      vertex -1.383663e+002 -6.087557e+001  5.600000e+001
      vertex -1.408181e+002 -6.119193e+001  5.600000e+001
    endloop
  endfacet
  facet normal  0.000000e+000  0.000000e+000  1.000000e+000
    outer loop
      vertex -1.400000e+002 -1.020000e+002  5.600000e+001
      vertex -1.408181e+002 -6.119193e+001  5.600000e+001
      vertex -1.429876e+002 -6.000672e+001  5.600000e+001
    endloop
  endfacet
  facet normal  0.000000e+000  0.000000e+000  1.000000e+000
    outer loop
      vertex -1.400000e+002 -1.020000e+002  5.600000e+001
      vertex -1.429876e+002 -6.000672e+001  5.600000e+001
      vertex -1.438268e+002 -1.012388e+002  5.600000e+001
    endloop
  endfacet
  facet normal  0.000000e+000  -0.000000e+000  1.000000e+000
    outer loop
      vertex -1.000000e+001 -1.020000e+002  5.600000e+001
      vertex -6.173166e+000 -1.012388e+002  5.600000e+001
      vertex -2.928932e+000 -9.907107e+001  5.600000e+001
    endloop
  endfacet
  facet normal  0.000000e+000  -0.000000e+000  1.000000e+000
    outer loop
      vertex -1.000000e+001 -1.020000e+002  5.600000e+001
      vertex -2.928932e+000 -9.907107e+001  5.600000e+001
      vertex -7.612047e-001 -9.582684e+001  5.600000e+001
    endloop
  endfacet
  facet normal  0.000000e+000  -0.000000e+000  9.999999e-001
    outer loop
      vertex -1.000000e+001 -1.020000e+002  5.600000e+001
      vertex -7.612047e-001 -9.582684e+001  5.600000e+001
      vertex  0.000000e+000 -9.200000e+001  5.600000e+001
    endloop
  endfacet
  facet normal  -0.000000e+000  0.000000e+000  1.000000e+000
    outer loop
      vertex -1.500000e+002 -2.000000e+000  5.600000e+001
      vertex -1.500000e+002 -9.200000e+001  5.600000e+001
      vertex -1.470711e+002 -9.907107e+001  5.600000e+001
    endloop
  endfacet
  facet normal  0.000000e+000  -0.000000e+000  9.999999e-001
    outer loop
      vertex -1.500000e+002 -2.000000e+000  5.600000e+001
      vertex -1.470711e+002 -9.907107e+001  5.600000e+001
      vertex -1.440461e+002 -5.777267e+001  5.600000e+001
    endloop
  endfacet
  facet normal  0.000000e+000  -0.000000e+000  1.000000e+000
    outer loop
      vertex -1.500000e+002 -2.000000e+000  5.600000e+001
      vertex -1.440461e+002 -5.777267e+001  5.600000e+001
      vertex -1.435893e+002 -5.534310e+001  5.600000e+001
    endloop
  endfacet
  facet normal  0.000000e+000  -0.000000e+000  1.000000e+000
    outer loop
      vertex -1.500000e+002 -2.000000e+000  5.600000e+001
      vertex -1.435893e+002 -5.534310e+001  5.600000e+001
      vertex -1.417917e+002 -5.364603e+001  5.600000e+001
    endloop
  endfacet
  facet normal  0.000000e+000  -0.000000e+000  1.000000e+000
    outer loop
      vertex -1.500000e+002 -2.000000e+000  5.600000e+001
      vertex -1.417917e+002 -5.364603e+001  5.600000e+001
      vertex -1.393399e+002 -5.332967e+001  5.600000e+001
    endloop
  endfacet
  facet normal  -0.000000e+000  -0.000000e+000  1.000000e+000
    outer loop
      vertex -1.500000e+002 -2.000000e+000  5.600000e+001
      vertex -1.393399e+002 -5.332967e+001  5.600000e+001
      vertex -1.371704e+002 -5.451488e+001  5.600000e+001
    endloop
  endfacet
  facet normal  -0.000000e+000  -0.000000e+000  1.000000e+000
    outer loop
      vertex -1.500000e+002 -2.000000e+000  5.600000e+001
      vertex -1.371704e+002 -5.451488e+001  5.600000e+001
      vertex -1.361119e+002 -5.674893e+001  5.600000e+001
    endloop
  endfacet
  facet normal  0.000000e+000  -0.000000e+000  9.999999e-001
    outer loop
      vertex -1.500000e+002 -2.000000e+000  5.600000e+001
      vertex -1.361119e+002 -5.674893e+001  5.600000e+001
      vertex -1.427919e+001 -5.516870e+001  5.600000e+001
    endloop
  endfacet
  facet normal  0.000000e+000  -0.000000e+000  9.999999e-001
    outer loop
      vertex -1.500000e+002 -2.000000e+000  5.600000e+001
      vertex -1.427919e+001 -5.516870e+001  5.600000e+001
      vertex -1.382241e+001 -5.273914e+001  5.600000e+001
    endloop
  endfacet
  facet normal  0.000000e+000  -0.000000e+000  1.000000e+000
    outer loop
      vertex -1.500000e+002 -2.000000e+000  5.600000e+001
      vertex -1.382241e+001 -5.273914e+001  5.600000e+001
      vertex -1.202480e+001 -5.104206e+001  5.600000e+001
    endloop
  endfacet
  facet normal  0.000000e+000  -0.000000e+000  1.000000e+000
    outer loop
      vertex -1.500000e+002 -2.000000e+000  5.600000e+001
      vertex -1.202480e+001 -5.104206e+001  5.600000e+001
      vertex -9.572989e+000 -5.072571e+001  5.600000e+001
    endloop
  endfacet
  facet normal  -0.000000e+000  0.000000e+000  9.999999e-001
    outer loop
      vertex  1.421085e-014 -2.000000e+000  5.600000e+001
      vertex -1.500000e+002 -2.000000e+000  5.600000e+001
      vertex -9.572989e+000 -5.072571e+001  5.600000e+001
    endloop
  endfacet
  facet normal  -0.000000e+000  0.000000e+000  1.000000e+000
    outer loop
      vertex  1.421085e-014 -2.000000e+000  5.600000e+001
      vertex -9.572989e+000 -5.072571e+001  5.600000e+001
      vertex -7.403486e+000 -5.191092e+001  5.600000e+001
    endloop
  endfacet
  facet normal  -0.000000e+000  0.000000e+000  1.000000e+000
    outer loop
      vertex  1.421085e-014 -2.000000e+000  5.600000e+001
      vertex -7.403486e+000 -5.191092e+001  5.600000e+001
      vertex -6.344966e+000 -5.414497e+001  5.600000e+001
    endloop
  endfacet
  facet normal  0.000000e+000  0.000000e+000 -1.000000e+000
    outer loop
      vertex -1.500000e+002 -9.200000e+001  5.400000e+001
      vertex -1.470711e+002 -9.907107e+001  5.400000e+001
      vertex -1.492388e+002 -9.582684e+001  5.400000e+001
    endloop
  endfacet
  facet normal  0.000000e+000  0.000000e+000 -1.000000e+000
    outer loop
      vertex -1.322068e+001 -5.740276e+001  5.400000e+001
      vertex -1.361119e+002 -5.674893e+001  5.400000e+001
      vertex -1.427919e+001 -5.516870e+001  5.400000e+001
    endloop
  endfacet
  facet normal  0.000000e+000  0.000000e+000 -1.000000e+000
    outer loop
      vertex -1.000000e+001 -1.020000e+002  5.400000e+001
      vertex -1.105117e+001 -5.858796e+001  5.400000e+001
      vertex -8.599360e+000 -5.827161e+001  5.400000e+001
    endloop
  endfacet
  facet normal  0.000000e+000  0.000000e+000 -1.000000e+000
    outer loop
      vertex -1.429876e+002 -6.000672e+001  5.400000e+001
      vertex -1.438268e+002 -1.012388e+002  5.400000e+001
      vertex -1.440461e+002 -5.777267e+001  5.400000e+001
    endloop
  endfacet
  facet normal  0.000000e+000  -0.000000e+000 -1.000000e+000
    outer loop
      vertex -1.470711e+002 -9.907107e+001  5.400000e+001
      vertex -1.440461e+002 -5.777267e+001  5.400000e+001
      vertex -1.438268e+002 -1.012388e+002  5.400000e+001
    endloop
  endfacet
  facet normal  0.000000e+000  0.000000e+000 -9.999999e-001
    outer loop
      vertex  0.000000e+000 -9.200000e+001  5.400000e+001
      vertex -1.000000e+001 -1.020000e+002  5.400000e+001
      vertex -8.599360e+000 -5.827161e+001  5.400000e+001
    endloop
  endfacet
  facet normal  0.000000e+000  0.000000e+000 -1.000000e+000
    outer loop
      vertex  0.000000e+000 -9.200000e+001  5.400000e+001
      vertex -8.599360e+000 -5.827161e+001  5.400000e+001
      vertex -6.801750e+000 -5.657454e+001  5.400000e+001
    endloop
  endfacet
  facet normal  0.000000e+000  0.000000e+000 -1.000000e+000
    outer loop
      vertex  0.000000e+000 -9.200000e+001  5.400000e+001
      vertex -6.801750e+000 -5.657454e+001  5.400000e+001
      vertex -6.344966e+000 -5.414497e+001  5.400000e+001
    endloop
  endfacet
  facet normal  0.000000e+000  0.000000e+000 -1.000000e+000
    outer loop
      vertex  0.000000e+000 -9.200000e+001  5.400000e+001
      vertex -6.344966e+000 -5.414497e+001  5.400000e+001
      vertex  0.000000e+000 -2.000000e+000  5.400000e+001
    endloop
  endfacet
  facet normal  0.000000e+000  0.000000e+000 -1.000000e+000
    outer loop
      vertex -1.400000e+002 -1.020000e+002  5.400000e+001
      vertex -1.438268e+002 -1.012388e+002  5.400000e+001
      vertex -1.429876e+002 -6.000672e+001  5.400000e+001
    endloop
  endfacet
  facet normal  0.000000e+000  0.000000e+000 -1.000000e+000
    outer loop
      vertex -1.400000e+002 -1.020000e+002  5.400000e+001
      vertex -1.429876e+002 -6.000672e+001  5.400000e+001
      vertex -1.408181e+002 -6.119193e+001  5.400000e+001
    endloop
  endfacet
  facet normal  0.000000e+000  0.000000e+000 -1.000000e+000
    outer loop
      vertex -1.400000e+002 -1.020000e+002  5.400000e+001
      vertex -1.408181e+002 -6.119193e+001  5.400000e+001
      vertex -1.383663e+002 -6.087557e+001  5.400000e+001
    endloop
  endfacet
  facet normal  0.000000e+000  -0.000000e+000 -1.000000e+000
    outer loop
      vertex -1.400000e+002 -1.020000e+002  5.400000e+001
      vertex -1.383663e+002 -6.087557e+001  5.400000e+001
      vertex -1.365686e+002 -5.917850e+001  5.400000e+001
    endloop
  endfacet
  facet normal  0.000000e+000  -0.000000e+000 -1.000000e+000
    outer loop
      vertex -1.400000e+002 -1.020000e+002  5.400000e+001
      vertex -1.365686e+002 -5.917850e+001  5.400000e+001
      vertex -1.361119e+002 -5.674893e+001  5.400000e+001
    endloop
  endfacet
  facet normal  0.000000e+000  -0.000000e+000 -1.000000e+000
    outer loop
      vertex -1.400000e+002 -1.020000e+002  5.400000e+001
      vertex -1.361119e+002 -5.674893e+001  5.400000e+001
      vertex -1.322068e+001 -5.740276e+001  5.400000e+001
    endloop
  endfacet
  facet normal  0.000000e+000  -0.000000e+000 -1.000000e+000
    outer loop
      vertex -1.400000e+002 -1.020000e+002  5.400000e+001
      vertex -1.322068e+001 -5.740276e+001  5.400000e+001
      vertex -1.105117e+001 -5.858796e+001  5.400000e+001
    endloop
  endfacet
  facet normal  0.000000e+000  -0.000000e+000 -1.000000e+000
    outer loop
      vertex -1.400000e+002 -1.020000e+002  5.400000e+001
      vertex -1.105117e+001 -5.858796e+001  5.400000e+001
      vertex -1.000000e+001 -1.020000e+002  5.400000e+001
    endloop
  endfacet
  facet normal  0.000000e+000  0.000000e+000 -9.999999e-001
    outer loop
      vertex -1.000000e+001 -1.020000e+002  5.400000e+001
      vertex  0.000000e+000 -9.200000e+001  5.400000e+001
      vertex -7.612047e-001 -9.582684e+001  5.400000e+001
    endloop
  endfacet
  facet normal  0.000000e+000  0.000000e+000 -1.000000e+000
    outer loop
      vertex -1.000000e+001 -1.020000e+002  5.400000e+001
      vertex -7.612047e-001 -9.582684e+001  5.400000e+001
      vertex -2.928932e+000 -9.907107e+001  5.400000e+001
    endloop
  endfacet
  facet normal  0.000000e+000  0.000000e+000 -1.000000e+000
    outer loop
      vertex -1.000000e+001 -1.020000e+002  5.400000e+001
      vertex -2.928932e+000 -9.907107e+001  5.400000e+001
      vertex -6.173166e+000 -1.012388e+002  5.400000e+001
    endloop
  endfacet
  facet normal  -0.000000e+000  0.000000e+000 -1.000000e+000
    outer loop
      vertex -1.500000e+002 -2.000000e+000  5.400000e+001
      vertex -9.572989e+000 -5.072571e+001  5.400000e+001
      vertex -1.202480e+001 -5.104206e+001  5.400000e+001
    endloop
  endfacet
  facet normal  -0.000000e+000  0.000000e+000 -1.000000e+000
    outer loop
      vertex -1.500000e+002 -2.000000e+000  5.400000e+001
      vertex -1.202480e+001 -5.104206e+001  5.400000e+001
      vertex -1.382241e+001 -5.273914e+001  5.400000e+001
    endloop
  endfacet
  facet normal  -0.000000e+000  0.000000e+000 -9.999999e-001
    outer loop
      vertex -1.500000e+002 -2.000000e+000  5.400000e+001
      vertex -1.382241e+001 -5.273914e+001  5.400000e+001
      vertex -1.427919e+001 -5.516870e+001  5.400000e+001
    endloop
  endfacet
  facet normal  -0.000000e+000  0.000000e+000 -9.999999e-001
    outer loop
      vertex -1.500000e+002 -2.000000e+000  5.400000e+001
      vertex -1.427919e+001 -5.516870e+001  5.400000e+001
      vertex -1.361119e+002 -5.674893e+001  5.400000e+001
    endloop
  endfacet
  facet normal  0.000000e+000  0.000000e+000 -1.000000e+000
    outer loop
      vertex -1.500000e+002 -2.000000e+000  5.400000e+001
      vertex -1.361119e+002 -5.674893e+001  5.400000e+001
      vertex -1.371704e+002 -5.451488e+001  5.400000e+001
    endloop
  endfacet
  facet normal  0.000000e+000  0.000000e+000 -1.000000e+000
    outer loop
      vertex -1.500000e+002 -2.000000e+000  5.400000e+001
      vertex -1.371704e+002 -5.451488e+001  5.400000e+001
      vertex -1.393399e+002 -5.332967e+001  5.400000e+001
    endloop
  endfacet
  facet normal  -0.000000e+000  0.000000e+000 -1.000000e+000
    outer loop
      vertex -1.500000e+002 -2.000000e+000  5.400000e+001
      vertex -1.393399e+002 -5.332967e+001  5.400000e+001
      vertex -1.417917e+002 -5.364603e+001  5.400000e+001
    endloop
  endfacet
  facet normal  -0.000000e+000  0.000000e+000 -1.000000e+000
    outer loop
      vertex -1.500000e+002 -2.000000e+000  5.400000e+001
      vertex -1.417917e+002 -5.364603e+001  5.400000e+001
      vertex -1.435893e+002 -5.534310e+001  5.400000e+001
    endloop
  endfacet
  facet normal  -0.000000e+000  0.000000e+000 -1.000000e+000
    outer loop
      vertex -1.500000e+002 -2.000000e+000  5.400000e+001
      vertex -1.435893e+002 -5.534310e+001  5.400000e+001
      vertex -1.440461e+002 -5.777267e+001  5.400000e+001
    endloop
  endfacet
  facet normal  -0.000000e+000  0.000000e+000 -9.999999e-001
    outer loop
      vertex -1.500000e+002 -2.000000e+000  5.400000e+001
      vertex -1.440461e+002 -5.777267e+001  5.400000e+001
      vertex -1.470711e+002 -9.907107e+001  5.400000e+001
    endloop
  endfacet
  facet normal  0.000000e+000  0.000000e+000 -1.000000e+000
    outer loop
      vertex -1.500000e+002 -2.000000e+000  5.400000e+001
      vertex -1.470711e+002 -9.907107e+001  5.400000e+001
      vertex -1.500000e+002 -9.200000e+001  5.400000e+001
    endloop
  endfacet
  facet normal  0.000000e+000  0.000000e+000 -1.000000e+000
    outer loop
      vertex  0.000000e+000 -2.000000e+000  5.400000e+001
      vertex -6.344966e+000 -5.414497e+001  5.400000e+001
      vertex -7.403486e+000 -5.191092e+001  5.400000e+001
    endloop
  endfacet
  facet normal  0.000000e+000  0.000000e+000 -1.000000e+000
    outer loop
      vertex  0.000000e+000 -2.000000e+000  5.400000e+001
      vertex -7.403486e+000 -5.191092e+001  5.400000e+001
      vertex -9.572989e+000 -5.072571e+001  5.400000e+001
    endloop
  endfacet
  facet normal  0.000000e+000  0.000000e+000 -9.999999e-001
    outer loop
      vertex  0.000000e+000 -2.000000e+000  5.400000e+001
      vertex -9.572989e+000 -5.072571e+001  5.400000e+001
      vertex -1.500000e+002 -2.000000e+000  5.400000e+001
    endloop
  endfacet
  facet normal  0.000000e+000  -0.000000e+000 -1.000000e+000
    outer loop
      vertex -1.361119e+002 -5.674893e+001 -5.600000e+001
      vertex -1.427919e+001 -5.516870e+001 -5.600000e+001
      vertex -1.322068e+001 -5.740276e+001 -5.600000e+001
    endloop
  endfacet
  facet normal  0.000000e+000  0.000000e+000 -1.000000e+000
    outer loop
      vertex -1.438268e+002 -1.012388e+002 -5.600000e+001
      vertex -1.440461e+002 -5.777267e+001 -5.600000e+001
      vertex -1.429876e+002 -6.000672e+001 -5.600000e+001
    endloop
  endfacet
  facet normal  -0.000000e+000  0.000000e+000 -1.000000e+000
    outer loop
      vertex -1.500000e+002 -2.000000e+000 -5.600000e+001
      vertex -9.572989e+000 -5.072571e+001 -5.600000e+001
      vertex -1.202480e+001 -5.104206e+001 -5.600000e+001
    endloop
  endfacet
  facet normal  -0.000000e+000  0.000000e+000 -1.000000e+000
    outer loop
      vertex -1.500000e+002 -2.000000e+000 -5.600000e+001
      vertex -1.202480e+001 -5.104206e+001 -5.600000e+001
      vertex -1.382241e+001 -5.273914e+001 -5.600000e+001
    endloop
  endfacet
  facet normal  -0.000000e+000  0.000000e+000 -9.999999e-001
    outer loop
      vertex -1.500000e+002 -2.000000e+000 -5.600000e+001
      vertex -1.382241e+001 -5.273914e+001 -5.600000e+001
      vertex -1.427919e+001 -5.516870e+001 -5.600000e+001
    endloop
  endfacet
  facet normal  -0.000000e+000  0.000000e+000 -9.999999e-001
    outer loop
      vertex -1.500000e+002 -2.000000e+000 -5.600000e+001
      vertex -1.427919e+001 -5.516870e+001 -5.600000e+001
      vertex -1.361119e+002 -5.674893e+001 -5.600000e+001
    endloop
  endfacet
  facet normal  0.000000e+000  0.000000e+000 -1.000000e+000
    outer loop
      vertex -1.500000e+002 -2.000000e+000 -5.600000e+001
      vertex -1.361119e+002 -5.674893e+001 -5.600000e+001
      vertex -1.371704e+002 -5.451488e+001 -5.600000e+001
    endloop
  endfacet
  facet normal  0.000000e+000  0.000000e+000 -1.000000e+000
    outer loop
      vertex -1.500000e+002 -2.000000e+000 -5.600000e+001
      vertex -1.371704e+002 -5.451488e+001 -5.600000e+001
      vertex -1.393399e+002 -5.332967e+001 -5.600000e+001
    endloop
  endfacet
  facet normal  -0.000000e+000  0.000000e+000 -1.000000e+000
    outer loop
      vertex -1.500000e+002 -2.000000e+000 -5.600000e+001
      vertex -1.393399e+002 -5.332967e+001 -5.600000e+001
      vertex -1.417917e+002 -5.364603e+001 -5.600000e+001
    endloop
  endfacet
  facet normal  -0.000000e+000  0.000000e+000 -1.000000e+000
    outer loop
      vertex -1.500000e+002 -2.000000e+000 -5.600000e+001
      vertex -1.417917e+002 -5.364603e+001 -5.600000e+001
      vertex -1.435893e+002 -5.534310e+001 -5.600000e+001
    endloop
  endfacet
  facet normal  -0.000000e+000  0.000000e+000 -1.000000e+000
    outer loop
      vertex -1.500000e+002 -2.000000e+000 -5.600000e+001
      vertex -1.435893e+002 -5.534310e+001 -5.600000e+001
      vertex -1.440461e+002 -5.777267e+001 -5.600000e+001
    endloop
  endfacet
  facet normal  -0.000000e+000  0.000000e+000 -1.000000e+000
    outer loop
      vertex -1.500000e+002 -2.000000e+000 -5.600000e+001
      vertex -1.440461e+002 -5.777267e+001 -5.600000e+001
      vertex -1.500000e+002 -9.200000e+001 -5.600000e+001
    endloop
  endfacet
  facet normal  0.000000e+000  0.000000e+000 -1.000000e+000
    outer loop
      vertex  0.000000e+000 -2.000000e+000 -5.600000e+001
      vertex -6.344966e+000 -5.414497e+001 -5.600000e+001
      vertex -7.403486e+000 -5.191092e+001 -5.600000e+001
    endloop
  endfacet
  facet normal  0.000000e+000  0.000000e+000 -1.000000e+000
    outer loop
      vertex  0.000000e+000 -2.000000e+000 -5.600000e+001
      vertex -7.403486e+000 -5.191092e+001 -5.600000e+001
      vertex -9.572989e+000 -5.072571e+001 -5.600000e+001
    endloop
  endfacet
  facet normal  0.000000e+000  0.000000e+000 -9.999999e-001
    outer loop
      vertex  0.000000e+000 -2.000000e+000 -5.600000e+001
      vertex -9.572989e+000 -5.072571e+001 -5.600000e+001
      vertex -1.500000e+002 -2.000000e+000 -5.600000e+001
    endloop
  endfacet
  facet normal  0.000000e+000  0.000000e+000 -1.000000e+000
    outer loop
      vertex  0.000000e+000 -9.200000e+001 -5.600000e+001
      vertex -8.599360e+000 -5.827161e+001 -5.600000e+001
      vertex -6.801750e+000 -5.657454e+001 -5.600000e+001
    endloop
  endfacet
  facet normal  0.000000e+000  0.000000e+000 -1.000000e+000
    outer loop
      vertex  0.000000e+000 -9.200000e+001 -5.600000e+001
      vertex -6.801750e+000 -5.657454e+001 -5.600000e+001
      vertex -6.344966e+000 -5.414497e+001 -5.600000e+001
    endloop
  endfacet
  facet normal  0.000000e+000  0.000000e+000 -1.000000e+000
    outer loop
      vertex  0.000000e+000 -9.200000e+001 -5.600000e+001
      vertex -6.344966e+000 -5.414497e+001 -5.600000e+001
      vertex  0.000000e+000 -2.000000e+000 -5.600000e+001
    endloop
  endfacet
  facet normal  0.000000e+000  0.000000e+000 -1.000000e+000
    outer loop
      vertex -1.000000e+001 -1.020000e+002 -5.600000e+001
      vertex -1.400000e+002 -1.020000e+002 -5.600000e+001
      vertex -1.105117e+001 -5.858796e+001 -5.600000e+001
    endloop
  endfacet
  facet normal  0.000000e+000  0.000000e+000 -1.000000e+000
    outer loop
      vertex -1.000000e+001 -1.020000e+002 -5.600000e+001
      vertex -1.105117e+001 -5.858796e+001 -5.600000e+001
      vertex -8.599360e+000 -5.827161e+001 -5.600000e+001
    endloop
  endfacet
  facet normal  0.000000e+000  -0.000000e+000 -1.000000e+000
    outer loop
      vertex -1.000000e+001 -1.020000e+002 -5.600000e+001
      vertex -8.599360e+000 -5.827161e+001 -5.600000e+001
      vertex -6.173166e+000 -1.012388e+002 -5.600000e+001
    endloop
  endfacet
  facet normal  0.000000e+000  0.000000e+000 -1.000000e+000
    outer loop
      vertex -1.400000e+002 -1.020000e+002 -5.600000e+001
      vertex -1.438268e+002 -1.012388e+002 -5.600000e+001
      vertex -1.429876e+002 -6.000672e+001 -5.600000e+001
    endloop
  endfacet
  facet normal  0.000000e+000  0.000000e+000 -1.000000e+000
    outer loop
      vertex -1.400000e+002 -1.020000e+002 -5.600000e+001
      vertex -1.429876e+002 -6.000672e+001 -5.600000e+001
      vertex -1.408181e+002 -6.119193e+001 -5.600000e+001
    endloop
  endfacet
  facet normal  0.000000e+000  0.000000e+000 -1.000000e+000
    outer loop
      vertex -1.400000e+002 -1.020000e+002 -5.600000e+001
      vertex -1.408181e+002 -6.119193e+001 -5.600000e+001
      vertex -1.383663e+002 -6.087557e+001 -5.600000e+001
    endloop
  endfacet
  facet normal  0.000000e+000  -0.000000e+000 -1.000000e+000
    outer loop
      vertex -1.400000e+002 -1.020000e+002 -5.600000e+001
      vertex -1.383663e+002 -6.087557e+001 -5.600000e+001
      vertex -1.365686e+002 -5.917850e+001 -5.600000e+001
    endloop
  endfacet
  facet normal  0.000000e+000  -0.000000e+000 -1.000000e+000
    outer loop
      vertex -1.400000e+002 -1.020000e+002 -5.600000e+001
      vertex -1.365686e+002 -5.917850e+001 -5.600000e+001
      vertex -1.361119e+002 -5.674893e+001 -5.600000e+001
    endloop
  endfacet
  facet normal  0.000000e+000  -0.000000e+000 -1.000000e+000
    outer loop
      vertex -1.400000e+002 -1.020000e+002 -5.600000e+001
      vertex -1.361119e+002 -5.674893e+001 -5.600000e+001
      vertex -1.322068e+001 -5.740276e+001 -5.600000e+001
    endloop
  endfacet
  facet normal  0.000000e+000  -0.000000e+000 -1.000000e+000
    outer loop
      vertex -1.400000e+002 -1.020000e+002 -5.600000e+001
      vertex -1.322068e+001 -5.740276e+001 -5.600000e+001
      vertex -1.105117e+001 -5.858796e+001 -5.600000e+001
    endloop
  endfacet
  facet normal  -0.000000e+000  0.000000e+000 -1.000000e+000
    outer loop
      vertex -8.599360e+000 -5.827161e+001 -5.600000e+001
      vertex  0.000000e+000 -9.200000e+001 -5.600000e+001
      vertex -7.612047e-001 -9.582684e+001 -5.600000e+001
    endloop
  endfacet
  facet normal  -0.000000e+000  0.000000e+000 -9.999999e-001
    outer loop
      vertex -8.599360e+000 -5.827161e+001 -5.600000e+001
      vertex -7.612047e-001 -9.582684e+001 -5.600000e+001
      vertex -2.928932e+000 -9.907107e+001 -5.600000e+001
    endloop
  endfacet
  facet normal  -0.000000e+000  0.000000e+000 -1.000000e+000
    outer loop
      vertex -8.599360e+000 -5.827161e+001 -5.600000e+001
      vertex -2.928932e+000 -9.907107e+001 -5.600000e+001
      vertex -6.173166e+000 -1.012388e+002 -5.600000e+001
    endloop
  endfacet
  facet normal  0.000000e+000  0.000000e+000 -1.000000e+000
    outer loop
      vertex -1.438268e+002 -1.012388e+002 -5.600000e+001
      vertex -1.470711e+002 -9.907107e+001 -5.600000e+001
      vertex -1.440461e+002 -5.777267e+001 -5.600000e+001
    endloop
  endfacet
  facet normal  0.000000e+000  0.000000e+000 -1.000000e+000
    outer loop
      vertex -1.440461e+002 -5.777267e+001 -5.600000e+001
      vertex -1.470711e+002 -9.907107e+001 -5.600000e+001
      vertex -1.492388e+002 -9.582684e+001 -5.600000e+001
    endloop
  endfacet
  facet normal  0.000000e+000  0.000000e+000 -9.999999e-001
    outer loop
      vertex -1.440461e+002 -5.777267e+001 -5.600000e+001
      vertex -1.492388e+002 -9.582684e+001 -5.600000e+001
      vertex -1.500000e+002 -9.200000e+001 -5.600000e+001
    endloop
  endfacet
  facet normal  9.036934e-001  4.281801e-001  -0.000000e+000
    outer loop
      vertex -1.322068e+001 -5.740276e+001  5.600000e+001
      vertex -1.427919e+001 -5.516870e+001  5.400000e+001
      vertex -1.427919e+001 -5.516870e+001  5.600000e+001
    endloop
  endfacet
  facet normal  9.827813e-001 -1.847727e-001  0.000000e+000
    outer loop
      vertex -1.427919e+001 -5.516870e+001  5.600000e+001
      vertex -1.427919e+001 -5.516870e+001  5.400000e+001
      vertex -1.382241e+001 -5.273914e+001  5.400000e+001
    endloop
  endfacet
  facet normal  9.827813e-001 -1.847727e-001  0.000000e+000
    outer loop
      vertex -1.427919e+001 -5.516870e+001  5.600000e+001
      vertex -1.382241e+001 -5.273914e+001  5.400000e+001
      vertex -1.382241e+001 -5.273914e+001  5.600000e+001
    endloop
  endfacet
  facet normal  9.036934e-001  4.281801e-001  0.000000e+000
    outer loop
      vertex -1.427919e+001 -5.516870e+001  5.400000e+001
      vertex -1.322068e+001 -5.740276e+001  5.600000e+001
      vertex -1.322068e+001 -5.740276e+001  5.400000e+001
    endloop
  endfacet
  facet normal  4.794262e-001  8.775821e-001  -0.000000e+000
    outer loop
      vertex -1.322068e+001 -5.740276e+001  5.400000e+001
      vertex -1.322068e+001 -5.740276e+001  5.600000e+001
      vertex -1.105117e+001 -5.858796e+001  5.600000e+001
    endloop
  endfacet
  facet normal  4.794262e-001  8.775821e-001  0.000000e+000
    outer loop
      vertex -1.322068e+001 -5.740276e+001  5.400000e+001
      vertex -1.105117e+001 -5.858796e+001  5.600000e+001
      vertex -1.105117e+001 -5.858796e+001  5.400000e+001
    endloop
  endfacet
  facet normal -1.279674e-001  9.917784e-001  0.000000e+000
    outer loop
      vertex -1.105117e+001 -5.858796e+001  5.400000e+001
      vertex -1.105117e+001 -5.858796e+001  5.600000e+001
      vertex -8.599360e+000 -5.827161e+001  5.600000e+001
    endloop
  endfacet
  facet normal -1.279674e-001  9.917784e-001  0.000000e+000
    outer loop
      vertex -1.105117e+001 -5.858796e+001  5.400000e+001
      vertex -8.599360e+000 -5.827161e+001  5.600000e+001
      vertex -8.599360e+000 -5.827161e+001  5.400000e+001
    endloop
  endfacet
  facet normal -6.864798e-001  7.271488e-001  0.000000e+000
    outer loop
      vertex -8.599360e+000 -5.827161e+001  5.400000e+001
      vertex -8.599360e+000 -5.827161e+001  5.600000e+001
      vertex -6.801750e+000 -5.657454e+001  5.600000e+001
    endloop
  endfacet
  facet normal -6.864798e-001  7.271488e-001  0.000000e+000
    outer loop
      vertex -8.599360e+000 -5.827161e+001  5.400000e+001
      vertex -6.801750e+000 -5.657454e+001  5.600000e+001
      vertex -6.801750e+000 -5.657454e+001  5.400000e+001
    endloop
  endfacet
  facet normal  9.036934e-001  4.281801e-001  -0.000000e+000
    outer loop
      vertex -1.322068e+001 -5.740276e+001 -5.400000e+001
      vertex -1.427919e+001 -5.516870e+001 -5.600000e+001
      vertex -1.427919e+001 -5.516870e+001 -5.400000e+001
    endloop
  endfacet
  facet normal  9.827813e-001 -1.847727e-001  0.000000e+000
    outer loop
      vertex -1.427919e+001 -5.516870e+001 -5.400000e+001
      vertex -1.427919e+001 -5.516870e+001 -5.600000e+001
      vertex -1.382241e+001 -5.273914e+001 -5.600000e+001
    endloop
  endfacet
  facet normal  9.827813e-001 -1.847727e-001  0.000000e+000
    outer loop
      vertex -1.427919e+001 -5.516870e+001 -5.400000e+001
      vertex -1.382241e+001 -5.273914e+001 -5.600000e+001
      vertex -1.382241e+001 -5.273914e+001 -5.400000e+001
    endloop
  endfacet
  facet normal  9.036934e-001  4.281801e-001  0.000000e+000
    outer loop
      vertex -1.427919e+001 -5.516870e+001 -5.600000e+001
      vertex -1.322068e+001 -5.740276e+001 -5.400000e+001
      vertex -1.322068e+001 -5.740276e+001 -5.600000e+001
    endloop
  endfacet
  facet normal  4.794262e-001  8.775821e-001  -0.000000e+000
    outer loop
      vertex -1.322068e+001 -5.740276e+001 -5.600000e+001
      vertex -1.322068e+001 -5.740276e+001 -5.400000e+001
      vertex -1.105117e+001 -5.858796e+001 -5.400000e+001
    endloop
  endfacet
  facet normal  4.794262e-001  8.775821e-001  0.000000e+000
    outer loop
      vertex -1.322068e+001 -5.740276e+001 -5.600000e+001
      vertex -1.105117e+001 -5.858796e+001 -5.400000e+001
      vertex -1.105117e+001 -5.858796e+001 -5.600000e+001
    endloop
  endfacet
  facet normal -1.279674e-001  9.917784e-001  0.000000e+000
    outer loop
      vertex -1.105117e+001 -5.858796e+001 -5.600000e+001
      vertex -1.105117e+001 -5.858796e+001 -5.400000e+001
      vertex -8.599360e+000 -5.827161e+001 -5.400000e+001
    endloop
  endfacet
  facet normal -1.279674e-001  9.917784e-001  0.000000e+000
    outer loop
      vertex -1.105117e+001 -5.858796e+001 -5.600000e+001
      vertex -8.599360e+000 -5.827161e+001 -5.400000e+001
      vertex -8.599360e+000 -5.827161e+001 -5.600000e+001
    endloop
  endfacet
  facet normal -6.864798e-001  7.271488e-001  0.000000e+000
    outer loop
      vertex -8.599360e+000 -5.827161e+001 -5.600000e+001
      vertex -8.599360e+000 -5.827161e+001 -5.400000e+001
      vertex -6.801750e+000 -5.657454e+001 -5.400000e+001
    endloop
  endfacet
  facet normal -6.864798e-001  7.271488e-001  0.000000e+000
    outer loop
      vertex -8.599360e+000 -5.827161e+001 -5.600000e+001
      vertex -6.801750e+000 -5.657454e+001 -5.400000e+001
      vertex -6.801750e+000 -5.657454e+001 -5.600000e+001
    endloop
  endfacet
  facet normal -9.036933e-001 -4.281804e-001  0.000000e+000
    outer loop
      vertex -7.403486e+000 -5.191092e+001  5.600000e+001
      vertex -6.344966e+000 -5.414497e+001  5.400000e+001
      vertex -6.344966e+000 -5.414497e+001  5.600000e+001
    endloop
  endfacet
  facet normal -9.827812e-001  1.847729e-001  0.000000e+000
    outer loop
      vertex -6.344966e+000 -5.414497e+001  5.600000e+001
      vertex -6.344966e+000 -5.414497e+001  5.400000e+001
      vertex -6.801750e+000 -5.657454e+001  5.400000e+001
    endloop
  endfacet
  facet normal -9.827812e-001  1.847729e-001  0.000000e+000
    outer loop
      vertex -6.344966e+000 -5.414497e+001  5.600000e+001
      vertex -6.801750e+000 -5.657454e+001  5.400000e+001
      vertex -6.801750e+000 -5.657454e+001  5.600000e+001
    endloop
  endfacet
  facet normal -9.036933e-001 -4.281804e-001  -0.000000e+000
    outer loop
      vertex -6.344966e+000 -5.414497e+001  5.400000e+001
      vertex -7.403486e+000 -5.191092e+001  5.600000e+001
      vertex -7.403486e+000 -5.191092e+001  5.400000e+001
    endloop
  endfacet
  facet normal -4.794264e-001 -8.775821e-001  0.000000e+000
    outer loop
      vertex -7.403486e+000 -5.191092e+001  5.400000e+001
      vertex -7.403486e+000 -5.191092e+001  5.600000e+001
      vertex -9.572989e+000 -5.072571e+001  5.600000e+001
    endloop
  endfacet
  facet normal -4.794264e-001 -8.775821e-001  -0.000000e+000
    outer loop
      vertex -7.403486e+000 -5.191092e+001  5.400000e+001
      vertex -9.572989e+000 -5.072571e+001  5.600000e+001
      vertex -9.572989e+000 -5.072571e+001  5.400000e+001
    endloop
  endfacet
  facet normal  1.279674e-001 -9.917784e-001  0.000000e+000
    outer loop
      vertex -9.572989e+000 -5.072571e+001  5.400000e+001
      vertex -9.572989e+000 -5.072571e+001  5.600000e+001
      vertex -1.202480e+001 -5.104206e+001  5.600000e+001
    endloop
  endfacet
  facet normal  1.279674e-001 -9.917784e-001  0.000000e+000
    outer loop
      vertex -9.572989e+000 -5.072571e+001  5.400000e+001
      vertex -1.202480e+001 -5.104206e+001  5.600000e+001
      vertex -1.202480e+001 -5.104206e+001  5.400000e+001
    endloop
  endfacet
  facet normal  6.864798e-001 -7.271488e-001  0.000000e+000
    outer loop
      vertex -1.202480e+001 -5.104206e+001  5.400000e+001
      vertex -1.202480e+001 -5.104206e+001  5.600000e+001
      vertex -1.382241e+001 -5.273914e+001  5.600000e+001
    endloop
  endfacet
  facet normal  6.864798e-001 -7.271488e-001  0.000000e+000
    outer loop
      vertex -1.202480e+001 -5.104206e+001  5.400000e+001
      vertex -1.382241e+001 -5.273914e+001  5.600000e+001
      vertex -1.382241e+001 -5.273914e+001  5.400000e+001
    endloop
  endfacet
  facet normal -9.036933e-001 -4.281804e-001  0.000000e+000
    outer loop
      vertex -7.403486e+000 -5.191092e+001 -5.400000e+001
      vertex -6.344966e+000 -5.414497e+001 -5.600000e+001
      vertex -6.344966e+000 -5.414497e+001 -5.400000e+001
    endloop
  endfacet
  facet normal -9.827812e-001  1.847729e-001  0.000000e+000
    outer loop
      vertex -6.344966e+000 -5.414497e+001 -5.400000e+001
      vertex -6.344966e+000 -5.414497e+001 -5.600000e+001
      vertex -6.801750e+000 -5.657454e+001 -5.600000e+001
    endloop
  endfacet
  facet normal -9.827812e-001  1.847729e-001  0.000000e+000
    outer loop
      vertex -6.344966e+000 -5.414497e+001 -5.400000e+001
      vertex -6.801750e+000 -5.657454e+001 -5.600000e+001
      vertex -6.801750e+000 -5.657454e+001 -5.400000e+001
    endloop
  endfacet
  facet normal -9.036933e-001 -4.281804e-001  -0.000000e+000
    outer loop
      vertex -6.344966e+000 -5.414497e+001 -5.600000e+001
      vertex -7.403486e+000 -5.191092e+001 -5.400000e+001
      vertex -7.403486e+000 -5.191092e+001 -5.600000e+001
    endloop
  endfacet
  facet normal -4.794264e-001 -8.775821e-001  0.000000e+000
    outer loop
      vertex -7.403486e+000 -5.191092e+001 -5.600000e+001
      vertex -7.403486e+000 -5.191092e+001 -5.400000e+001
      vertex -9.572989e+000 -5.072571e+001 -5.400000e+001
    endloop
  endfacet
  facet normal -4.794264e-001 -8.775821e-001  -0.000000e+000
    outer loop
      vertex -7.403486e+000 -5.191092e+001 -5.600000e+001
      vertex -9.572989e+000 -5.072571e+001 -5.400000e+001
      vertex -9.572989e+000 -5.072571e+001 -5.600000e+001
    endloop
  endfacet
  facet normal  1.279674e-001 -9.917784e-001  0.000000e+000
    outer loop
      vertex -9.572989e+000 -5.072571e+001 -5.600000e+001
      vertex -9.572989e+000 -5.072571e+001 -5.400000e+001
      vertex -1.202480e+001 -5.104206e+001 -5.400000e+001
    endloop
  endfacet
  facet normal  1.279674e-001 -9.917784e-001  0.000000e+000
    outer loop
      vertex -9.572989e+000 -5.072571e+001 -5.600000e+001
      vertex -1.202480e+001 -5.104206e+001 -5.400000e+001
      vertex -1.202480e+001 -5.104206e+001 -5.600000e+001
    endloop
  endfacet
  facet normal  6.864798e-001 -7.271488e-001  0.000000e+000
    outer loop
      vertex -1.202480e+001 -5.104206e+001 -5.600000e+001
      vertex -1.202480e+001 -5.104206e+001 -5.400000e+001
      vertex -1.382241e+001 -5.273914e+001 -5.400000e+001
    endloop
  endfacet
  facet normal  6.864798e-001 -7.271488e-001  0.000000e+000
    outer loop
      vertex -1.202480e+001 -5.104206e+001 -5.600000e+001
      vertex -1.382241e+001 -5.273914e+001 -5.400000e+001
      vertex -1.382241e+001 -5.273914e+001 -5.600000e+001
    endloop
  endfacet
  facet normal  9.036935e-001  4.281798e-001  -0.000000e+000
    outer loop
      vertex -1.429876e+002 -6.000672e+001  5.600000e+001
      vertex -1.440461e+002 -5.777267e+001  5.400000e+001
      vertex -1.440461e+002 -5.777267e+001  5.600000e+001
    endloop
  endfacet
  facet normal  9.827810e-001 -1.847742e-001  0.000000e+000
    outer loop
      vertex -1.440461e+002 -5.777267e+001  5.600000e+001
      vertex -1.440461e+002 -5.777267e+001  5.400000e+001
      vertex -1.435893e+002 -5.534310e+001  5.400000e+001
    endloop
  endfacet
  facet normal  9.827810e-001 -1.847742e-001  0.000000e+000
    outer loop
      vertex -1.440461e+002 -5.777267e+001  5.600000e+001
      vertex -1.435893e+002 -5.534310e+001  5.400000e+001
      vertex -1.435893e+002 -5.534310e+001  5.600000e+001
    endloop
  endfacet
  facet normal  9.036935e-001  4.281798e-001  0.000000e+000
    outer loop
      vertex -1.440461e+002 -5.777267e+001  5.400000e+001
      vertex -1.429876e+002 -6.000672e+001  5.600000e+001
      vertex -1.429876e+002 -6.000672e+001  5.400000e+001
    endloop
  endfacet
  facet normal  4.794252e-001  8.775828e-001  -0.000000e+000
    outer loop
      vertex -1.429876e+002 -6.000672e+001  5.400000e+001
      vertex -1.429876e+002 -6.000672e+001  5.600000e+001
      vertex -1.408181e+002 -6.119193e+001  5.600000e+001
    endloop
  endfacet
  facet normal  4.794252e-001  8.775828e-001  0.000000e+000
    outer loop
      vertex -1.429876e+002 -6.000672e+001  5.400000e+001
      vertex -1.408181e+002 -6.119193e+001  5.600000e+001
      vertex -1.408181e+002 -6.119193e+001  5.400000e+001
    endloop
  endfacet
  facet normal -1.279673e-001  9.917784e-001  0.000000e+000
    outer loop
      vertex -1.408181e+002 -6.119193e+001  5.400000e+001
      vertex -1.408181e+002 -6.119193e+001  5.600000e+001
      vertex -1.383663e+002 -6.087557e+001  5.600000e+001
    endloop
  endfacet
  facet normal -1.279673e-001  9.917784e-001  0.000000e+000
    outer loop
      vertex -1.408181e+002 -6.119193e+001  5.400000e+001
      vertex -1.383663e+002 -6.087557e+001  5.600000e+001
      vertex -1.383663e+002 -6.087557e+001  5.400000e+001
    endloop
  endfacet
  facet normal -6.864805e-001  7.271483e-001  0.000000e+000
    outer loop
      vertex -1.383663e+002 -6.087557e+001  5.400000e+001
      vertex -1.383663e+002 -6.087557e+001  5.600000e+001
      vertex -1.365686e+002 -5.917850e+001  5.600000e+001
    endloop
  endfacet
  facet normal -6.864805e-001  7.271483e-001  0.000000e+000
    outer loop
      vertex -1.383663e+002 -6.087557e+001  5.400000e+001
      vertex -1.365686e+002 -5.917850e+001  5.600000e+001
      vertex -1.365686e+002 -5.917850e+001  5.400000e+001
    endloop
  endfacet
  facet normal  9.036935e-001  4.281798e-001  -0.000000e+000
    outer loop
      vertex -1.429876e+002 -6.000672e+001 -5.400000e+001
      vertex -1.440461e+002 -5.777267e+001 -5.600000e+001
      vertex -1.440461e+002 -5.777267e+001 -5.400000e+001
    endloop
  endfacet
  facet normal  9.827810e-001 -1.847742e-001  0.000000e+000
    outer loop
      vertex -1.440461e+002 -5.777267e+001 -5.400000e+001
      vertex -1.440461e+002 -5.777267e+001 -5.600000e+001
      vertex -1.435893e+002 -5.534310e+001 -5.600000e+001
    endloop
  endfacet
  facet normal  9.827810e-001 -1.847742e-001  0.000000e+000
    outer loop
      vertex -1.440461e+002 -5.777267e+001 -5.400000e+001
      vertex -1.435893e+002 -5.534310e+001 -5.600000e+001
      vertex -1.435893e+002 -5.534310e+001 -5.400000e+001
    endloop
  endfacet
  facet normal  9.036935e-001  4.281798e-001  0.000000e+000
    outer loop
      vertex -1.440461e+002 -5.777267e+001 -5.600000e+001
      vertex -1.429876e+002 -6.000672e+001 -5.400000e+001
      vertex -1.429876e+002 -6.000672e+001 -5.600000e+001
    endloop
  endfacet
  facet normal  4.794252e-001  8.775828e-001  -0.000000e+000
    outer loop
      vertex -1.429876e+002 -6.000672e+001 -5.600000e+001
      vertex -1.429876e+002 -6.000672e+001 -5.400000e+001
      vertex -1.408181e+002 -6.119193e+001 -5.400000e+001
    endloop
  endfacet
  facet normal  4.794252e-001  8.775828e-001  0.000000e+000
    outer loop
      vertex -1.429876e+002 -6.000672e+001 -5.600000e+001
      vertex -1.408181e+002 -6.119193e+001 -5.400000e+001
      vertex -1.408181e+002 -6.119193e+001 -5.600000e+001
    endloop
  endfacet
  facet normal -1.279673e-001  9.917784e-001  0.000000e+000
    outer loop
      vertex -1.408181e+002 -6.119193e+001 -5.600000e+001
      vertex -1.408181e+002 -6.119193e+001 -5.400000e+001
      vertex -1.383663e+002 -6.087557e+001 -5.400000e+001
    endloop
  endfacet
  facet normal -1.279673e-001  9.917784e-001  0.000000e+000
    outer loop
      vertex -1.408181e+002 -6.119193e+001 -5.600000e+001
      vertex -1.383663e+002 -6.087557e+001 -5.400000e+001
      vertex -1.383663e+002 -6.087557e+001 -5.600000e+001
    endloop
  endfacet
  facet normal -6.864805e-001  7.271483e-001  0.000000e+000
    outer loop
      vertex -1.383663e+002 -6.087557e+001 -5.600000e+001
      vertex -1.383663e+002 -6.087557e+001 -5.400000e+001
      vertex -1.365686e+002 -5.917850e+001 -5.400000e+001
    endloop
  endfacet
  facet normal -6.864805e-001  7.271483e-001  0.000000e+000
    outer loop
      vertex -1.383663e+002 -6.087557e+001 -5.600000e+001
      vertex -1.365686e+002 -5.917850e+001 -5.400000e+001
      vertex -1.365686e+002 -5.917850e+001 -5.600000e+001
    endloop
  endfacet
  facet normal -9.036935e-001 -4.281798e-001  0.000000e+000
    outer loop
      vertex -1.371704e+002 -5.451488e+001  5.600000e+001
      vertex -1.361119e+002 -5.674893e+001  5.400000e+001
      vertex -1.361119e+002 -5.674893e+001  5.600000e+001
    endloop
  endfacet
  facet normal -9.827810e-001  1.847742e-001  0.000000e+000
    outer loop
      vertex -1.361119e+002 -5.674893e+001  5.600000e+001
      vertex -1.361119e+002 -5.674893e+001  5.400000e+001
      vertex -1.365686e+002 -5.917850e+001  5.400000e+001
    endloop
  endfacet
  facet normal -9.827810e-001  1.847742e-001  0.000000e+000
    outer loop
      vertex -1.361119e+002 -5.674893e+001  5.600000e+001
      vertex -1.365686e+002 -5.917850e+001  5.400000e+001
      vertex -1.365686e+002 -5.917850e+001  5.600000e+001
    endloop
  endfacet
  facet normal -9.036935e-001 -4.281798e-001  -0.000000e+000
    outer loop
      vertex -1.361119e+002 -5.674893e+001  5.400000e+001
      vertex -1.371704e+002 -5.451488e+001  5.600000e+001
      vertex -1.371704e+002 -5.451488e+001  5.400000e+001
    endloop
  endfacet
  facet normal -4.794252e-001 -8.775828e-001  0.000000e+000
    outer loop
      vertex -1.371704e+002 -5.451488e+001  5.400000e+001
      vertex -1.371704e+002 -5.451488e+001  5.600000e+001
      vertex -1.393399e+002 -5.332967e+001  5.600000e+001
    endloop
  endfacet
  facet normal -4.794252e-001 -8.775828e-001  -0.000000e+000
    outer loop
      vertex -1.371704e+002 -5.451488e+001  5.400000e+001
      vertex -1.393399e+002 -5.332967e+001  5.600000e+001
      vertex -1.393399e+002 -5.332967e+001  5.400000e+001
    endloop
  endfacet
  facet normal  1.279673e-001 -9.917784e-001  0.000000e+000
    outer loop
      vertex -1.393399e+002 -5.332967e+001  5.400000e+001
      vertex -1.393399e+002 -5.332967e+001  5.600000e+001
      vertex -1.417917e+002 -5.364603e+001  5.600000e+001
    endloop
  endfacet
  facet normal  1.279673e-001 -9.917784e-001  0.000000e+000
    outer loop
      vertex -1.393399e+002 -5.332967e+001  5.400000e+001
      vertex -1.417917e+002 -5.364603e+001  5.600000e+001
      vertex -1.417917e+002 -5.364603e+001  5.400000e+001
    endloop
  endfacet
  facet normal  6.864805e-001 -7.271483e-001  0.000000e+000
    outer loop
      vertex -1.417917e+002 -5.364603e+001  5.400000e+001
      vertex -1.417917e+002 -5.364603e+001  5.600000e+001
      vertex -1.435893e+002 -5.534310e+001  5.600000e+001
    endloop
  endfacet
  facet normal  6.864805e-001 -7.271483e-001  0.000000e+000
    outer loop
      vertex -1.417917e+002 -5.364603e+001  5.400000e+001
      vertex -1.435893e+002 -5.534310e+001  5.600000e+001
      vertex -1.435893e+002 -5.534310e+001  5.400000e+001
    endloop
  endfacet
  facet normal -9.036935e-001 -4.281798e-001  0.000000e+000
    outer loop
      vertex -1.371704e+002 -5.451488e+001 -5.400000e+001
      vertex -1.361119e+002 -5.674893e+001 -5.600000e+001
      vertex -1.361119e+002 -5.674893e+001 -5.400000e+001
    endloop
  endfacet
  facet normal -9.827810e-001  1.847742e-001  0.000000e+000
    outer loop
      vertex -1.361119e+002 -5.674893e+001 -5.400000e+001
      vertex -1.361119e+002 -5.674893e+001 -5.600000e+001
      vertex -1.365686e+002 -5.917850e+001 -5.600000e+001
    endloop
  endfacet
  facet normal -9.827810e-001  1.847742e-001  0.000000e+000
    outer loop
      vertex -1.361119e+002 -5.674893e+001 -5.400000e+001
      vertex -1.365686e+002 -5.917850e+001 -5.600000e+001
      vertex -1.365686e+002 -5.917850e+001 -5.400000e+001
    endloop
  endfacet
  facet normal -9.036935e-001 -4.281798e-001  -0.000000e+000
    outer loop
      vertex -1.361119e+002 -5.674893e+001 -5.600000e+001
      vertex -1.371704e+002 -5.451488e+001 -5.400000e+001
      vertex -1.371704e+002 -5.451488e+001 -5.600000e+001
    endloop
  endfacet
  facet normal -4.794252e-001 -8.775828e-001  0.000000e+000
    outer loop
      vertex -1.371704e+002 -5.451488e+001 -5.600000e+001
      vertex -1.371704e+002 -5.451488e+001 -5.400000e+001
      vertex -1.393399e+002 -5.332967e+001 -5.400000e+001
    endloop
  endfacet
  facet normal -4.794252e-001 -8.775828e-001  -0.000000e+000
    outer loop
      vertex -1.371704e+002 -5.451488e+001 -5.600000e+001
      vertex -1.393399e+002 -5.332967e+001 -5.400000e+001
      vertex -1.393399e+002 -5.332967e+001 -5.600000e+001
    endloop
  endfacet
  facet normal  1.279673e-001 -9.917784e-001  0.000000e+000
    outer loop
      vertex -1.393399e+002 -5.332967e+001 -5.600000e+001
      vertex -1.393399e+002 -5.332967e+001 -5.400000e+001
      vertex -1.417917e+002 -5.364603e+001 -5.400000e+001
    endloop
  endfacet
  facet normal  1.279673e-001 -9.917784e-001  0.000000e+000
    outer loop
      vertex -1.393399e+002 -5.332967e+001 -5.600000e+001
      vertex -1.417917e+002 -5.364603e+001 -5.400000e+001
      vertex -1.417917e+002 -5.364603e+001 -5.600000e+001
    endloop
  endfacet
  facet normal  6.864805e-001 -7.271483e-001  0.000000e+000
    outer loop
      vertex -1.417917e+002 -5.364603e+001 -5.600000e+001
      vertex -1.417917e+002 -5.364603e+001 -5.400000e+001
      vertex -1.435893e+002 -5.534310e+001 -5.400000e+001
    endloop
  endfacet
  facet normal  6.864805e-001 -7.271483e-001  0.000000e+000
    outer loop
      vertex -1.417917e+002 -5.364603e+001 -5.600000e+001
      vertex -1.435893e+002 -5.534310e+001 -5.400000e+001
      vertex -1.435893e+002 -5.534310e+001 -5.600000e+001
    endloop
  endfacet
  facet normal  9.807853e-001 -1.950902e-001  0.000000e+000
    outer loop
      vertex  0.000000e+000 -9.200000e+001 -5.600000e+001
      vertex  0.000000e+000 -9.200000e+001 -5.400000e+001
      vertex -7.612047e-001 -9.582684e+001 -5.600000e+001
    endloop
  endfacet
  facet normal  9.807853e-001 -1.950902e-001  0.000000e+000
    outer loop
      vertex -7.612047e-001 -9.582684e+001 -5.600000e+001
      vertex  0.000000e+000 -9.200000e+001 -5.400000e+001
      vertex -7.612047e-001 -9.582684e+001 -5.400000e+001
    endloop
  endfacet
  facet normal  8.314695e-001 -5.555704e-001  0.000000e+000
    outer loop
      vertex -7.612047e-001 -9.582684e+001 -5.600000e+001
      vertex -7.612047e-001 -9.582684e+001 -5.400000e+001
      vertex -2.928932e+000 -9.907107e+001 -5.600000e+001
    endloop
  endfacet
  facet normal  8.314695e-001 -5.555704e-001  0.000000e+000
    outer loop
      vertex -2.928932e+000 -9.907107e+001 -5.600000e+001
      vertex -7.612047e-001 -9.582684e+001 -5.400000e+001
      vertex -2.928932e+000 -9.907107e+001 -5.400000e+001
    endloop
  endfacet
  facet normal  5.555697e-001 -8.314700e-001  0.000000e+000
    outer loop
      vertex -2.928932e+000 -9.907107e+001 -5.600000e+001
      vertex -2.928932e+000 -9.907107e+001 -5.400000e+001
      vertex -6.173166e+000 -1.012388e+002 -5.600000e+001
    endloop
  endfacet
  facet normal  5.555697e-001 -8.314700e-001  0.000000e+000
    outer loop
      vertex -6.173166e+000 -1.012388e+002 -5.600000e+001
      vertex -2.928932e+000 -9.907107e+001 -5.400000e+001
      vertex -6.173166e+000 -1.012388e+002 -5.400000e+001
    endloop
  endfacet
  facet normal  1.950910e-001 -9.807851e-001  0.000000e+000
    outer loop
      vertex -6.173166e+000 -1.012388e+002 -5.600000e+001
      vertex -6.173166e+000 -1.012388e+002 -5.400000e+001
      vertex -1.000000e+001 -1.020000e+002 -5.600000e+001
    endloop
  endfacet
  facet normal  1.950910e-001 -9.807851e-001  0.000000e+000
    outer loop
      vertex -1.000000e+001 -1.020000e+002 -5.600000e+001
      vertex -6.173166e+000 -1.012388e+002 -5.400000e+001
      vertex -1.000000e+001 -1.020000e+002 -5.400000e+001
    endloop
  endfacet
  facet normal -1.000000e+000  0.000000e+000  0.000000e+000
    outer loop
      vertex -1.500000e+002 -9.200000e+001  5.400000e+001
      vertex -1.500000e+002 -9.200000e+001  5.600000e+001
      vertex -1.500000e+002 -2.000000e+000  5.400000e+001
    endloop
  endfacet
  facet normal -1.000000e+000  0.000000e+000  0.000000e+000
    outer loop
      vertex -1.500000e+002 -2.000000e+000  5.400000e+001
      vertex -1.500000e+002 -9.200000e+001  5.600000e+001
      vertex -1.500000e+002 -2.000000e+000  5.600000e+001
    endloop
  endfacet
  facet normal -9.807855e-001 -1.950891e-001  0.000000e+000
    outer loop
      vertex -1.500000e+002 -9.200000e+001  5.600000e+001
      vertex -1.500000e+002 -9.200000e+001  5.400000e+001
      vertex -1.492388e+002 -9.582684e+001  5.600000e+001
    endloop
  endfacet
  facet normal -9.807855e-001 -1.950891e-001  -0.000000e+000
    outer loop
      vertex -1.492388e+002 -9.582684e+001  5.600000e+001
      vertex -1.500000e+002 -9.200000e+001  5.400000e+001
      vertex -1.492388e+002 -9.582684e+001  5.400000e+001
    endloop
  endfacet
  facet normal -8.314698e-001 -5.555699e-001  0.000000e+000
    outer loop
      vertex -1.492388e+002 -9.582684e+001  5.600000e+001
      vertex -1.492388e+002 -9.582684e+001  5.400000e+001
      vertex -1.470711e+002 -9.907107e+001  5.600000e+001
    endloop
  endfacet
  facet normal -8.314698e-001 -5.555699e-001  -0.000000e+000
    outer loop
      vertex -1.470711e+002 -9.907107e+001  5.600000e+001
      vertex -1.492388e+002 -9.582684e+001  5.400000e+001
      vertex -1.470711e+002 -9.907107e+001  5.400000e+001
    endloop
  endfacet
  facet normal -5.555680e-001 -8.314710e-001  0.000000e+000
    outer loop
      vertex -1.470711e+002 -9.907107e+001  5.600000e+001
      vertex -1.470711e+002 -9.907107e+001  5.400000e+001
      vertex -1.438268e+002 -1.012388e+002  5.600000e+001
    endloop
  endfacet
  facet normal -5.555680e-001 -8.314710e-001  -0.000000e+000
    outer loop
      vertex -1.438268e+002 -1.012388e+002  5.600000e+001
      vertex -1.470711e+002 -9.907107e+001  5.400000e+001
      vertex -1.438268e+002 -1.012388e+002  5.400000e+001
    endloop
  endfacet
  facet normal -1.950913e-001 -9.807850e-001  0.000000e+000
    outer loop
      vertex -1.438268e+002 -1.012388e+002  5.600000e+001
      vertex -1.438268e+002 -1.012388e+002  5.400000e+001
      vertex -1.400000e+002 -1.020000e+002  5.600000e+001
    endloop
  endfacet
  facet normal -1.950913e-001 -9.807850e-001  -0.000000e+000
    outer loop
      vertex -1.400000e+002 -1.020000e+002  5.600000e+001
      vertex -1.438268e+002 -1.012388e+002  5.400000e+001
      vertex -1.400000e+002 -1.020000e+002  5.400000e+001
    endloop
  endfacet
  facet normal  0.000000e+000 -1.000000e+000  0.000000e+000
    outer loop
      vertex -1.400000e+002 -1.020000e+002  5.400000e+001
      vertex -1.000000e+001 -1.020000e+002  5.400000e+001
      vertex -1.400000e+002 -1.020000e+002  5.600000e+001
    endloop
  endfacet
  facet normal  0.000000e+000 -1.000000e+000  0.000000e+000
    outer loop
      vertex -1.400000e+002 -1.020000e+002  5.600000e+001
      vertex -1.000000e+001 -1.020000e+002  5.400000e+001
      vertex -1.000000e+001 -1.020000e+002  5.600000e+001
    endloop
  endfacet
  facet normal  1.950910e-001 -9.807851e-001  0.000000e+000
    outer loop
      vertex -1.000000e+001 -1.020000e+002  5.600000e+001
      vertex -1.000000e+001 -1.020000e+002  5.400000e+001
      vertex -6.173166e+000 -1.012388e+002  5.600000e+001
    endloop
  endfacet
  facet normal  1.950910e-001 -9.807851e-001  0.000000e+000
    outer loop
      vertex -6.173166e+000 -1.012388e+002  5.600000e+001
      vertex -1.000000e+001 -1.020000e+002  5.400000e+001
      vertex -6.173166e+000 -1.012388e+002  5.400000e+001
    endloop
  endfacet
  facet normal  5.555697e-001 -8.314700e-001  0.000000e+000
    outer loop
      vertex -6.173166e+000 -1.012388e+002  5.600000e+001
      vertex -6.173166e+000 -1.012388e+002  5.400000e+001
      vertex -2.928932e+000 -9.907107e+001  5.600000e+001
    endloop
  endfacet
  facet normal  5.555697e-001 -8.314700e-001  0.000000e+000
    outer loop
      vertex -2.928932e+000 -9.907107e+001  5.600000e+001
      vertex -6.173166e+000 -1.012388e+002  5.400000e+001
      vertex -2.928932e+000 -9.907107e+001  5.400000e+001
    endloop
  endfacet
  facet normal  8.314695e-001 -5.555704e-001  0.000000e+000
    outer loop
      vertex -2.928932e+000 -9.907107e+001  5.600000e+001
      vertex -2.928932e+000 -9.907107e+001  5.400000e+001
      vertex -7.612047e-001 -9.582684e+001  5.600000e+001
    endloop
  endfacet
  facet normal  8.314695e-001 -5.555704e-001  0.000000e+000
    outer loop
      vertex -7.612047e-001 -9.582684e+001  5.600000e+001
      vertex -2.928932e+000 -9.907107e+001  5.400000e+001
      vertex -7.612047e-001 -9.582684e+001  5.400000e+001
    endloop
  endfacet
  facet normal  9.807853e-001 -1.950902e-001  0.000000e+000
    outer loop
      vertex -7.612047e-001 -9.582684e+001  5.600000e+001
      vertex -7.612047e-001 -9.582684e+001  5.400000e+001
      vertex  0.000000e+000 -9.200000e+001  5.600000e+001
    endloop
  endfacet
  facet normal  9.807853e-001 -1.950902e-001  0.000000e+000
    outer loop
      vertex  0.000000e+000 -9.200000e+001  5.600000e+001
      vertex -7.612047e-001 -9.582684e+001  5.400000e+001
      vertex  0.000000e+000 -9.200000e+001  5.400000e+001
    endloop
  endfacet
  facet normal  1.000000e+000  0.000000e+000  0.000000e+000
    outer loop
      vertex  0.000000e+000 -9.200000e+001  5.400000e+001
      vertex  0.000000e+000 -2.000000e+000  5.400000e+001
      vertex  0.000000e+000 -9.200000e+001  5.600000e+001
    endloop
  endfacet
  facet normal  1.000000e+000 -1.578984e-016 -7.105427e-015
    outer loop
      vertex  0.000000e+000 -9.200000e+001  5.600000e+001
      vertex  0.000000e+000 -2.000000e+000  5.400000e+001
      vertex  1.421085e-014 -2.000000e+000  5.600000e+001
    endloop
  endfacet
  facet normal  1.000000e+000  0.000000e+000  0.000000e+000
    outer loop
      vertex  0.000000e+000 -9.200000e+001 -5.600000e+001
      vertex  0.000000e+000 -2.000000e+000 -5.600000e+001
      vertex  0.000000e+000 -9.200000e+001 -5.400000e+001
    endloop
  endfacet
  facet normal  1.000000e+000  -0.000000e+000  0.000000e+000
    outer loop
      vertex  0.000000e+000 -9.200000e+001 -5.400000e+001
      vertex  0.000000e+000 -2.000000e+000 -5.600000e+001
      vertex  0.000000e+000 -2.000000e+000 -5.400000e+001
    endloop
  endfacet
  facet normal -1.000000e+000  0.000000e+000  0.000000e+000
    outer loop
      vertex -1.500000e+002 -9.200000e+001 -5.600000e+001
      vertex -1.500000e+002 -9.200000e+001 -5.400000e+001
      vertex -1.500000e+002 -2.000000e+000 -5.600000e+001
    endloop
  endfacet
  facet normal -1.000000e+000  0.000000e+000  0.000000e+000
    outer loop
      vertex -1.500000e+002 -2.000000e+000 -5.600000e+001
      vertex -1.500000e+002 -9.200000e+001 -5.400000e+001
      vertex -1.500000e+002 -2.000000e+000 -5.400000e+001
    endloop
  endfacet
  facet normal -1.950913e-001 -9.807850e-001  -0.000000e+000
    outer loop
      vertex -1.400000e+002 -1.020000e+002 -5.600000e+001
      vertex -1.400000e+002 -1.020000e+002 -5.400000e+001
      vertex -1.438268e+002 -1.012388e+002 -5.600000e+001
    endloop
  endfacet
  facet normal -1.950913e-001 -9.807850e-001  0.000000e+000
    outer loop
      vertex -1.438268e+002 -1.012388e+002 -5.600000e+001
      vertex -1.400000e+002 -1.020000e+002 -5.400000e+001
      vertex -1.438268e+002 -1.012388e+002 -5.400000e+001
    endloop
  endfacet
  facet normal -5.555680e-001 -8.314710e-001  -0.000000e+000
    outer loop
      vertex -1.438268e+002 -1.012388e+002 -5.600000e+001
      vertex -1.438268e+002 -1.012388e+002 -5.400000e+001
      vertex -1.470711e+002 -9.907107e+001 -5.600000e+001
    endloop
  endfacet
  facet normal -5.555680e-001 -8.314710e-001  0.000000e+000
    outer loop
      vertex -1.470711e+002 -9.907107e+001 -5.600000e+001
      vertex -1.438268e+002 -1.012388e+002 -5.400000e+001
      vertex -1.470711e+002 -9.907107e+001 -5.400000e+001
    endloop
  endfacet
  facet normal -8.314698e-001 -5.555699e-001  -0.000000e+000
    outer loop
      vertex -1.470711e+002 -9.907107e+001 -5.600000e+001
      vertex -1.470711e+002 -9.907107e+001 -5.400000e+001
      vertex -1.492388e+002 -9.582684e+001 -5.600000e+001
    endloop
  endfacet
  facet normal -8.314698e-001 -5.555699e-001  0.000000e+000
    outer loop
      vertex -1.492388e+002 -9.582684e+001 -5.600000e+001
      vertex -1.470711e+002 -9.907107e+001 -5.400000e+001
      vertex -1.492388e+002 -9.582684e+001 -5.400000e+001
    endloop
  endfacet
  facet normal -9.807855e-001 -1.950891e-001  -0.000000e+000
    outer loop
      vertex -1.492388e+002 -9.582684e+001 -5.600000e+001
      vertex -1.492388e+002 -9.582684e+001 -5.400000e+001
      vertex -1.500000e+002 -9.200000e+001 -5.600000e+001
    endloop
  endfacet
  facet normal -9.807855e-001 -1.950891e-001  0.000000e+000
    outer loop
      vertex -1.500000e+002 -9.200000e+001 -5.600000e+001
      vertex -1.492388e+002 -9.582684e+001 -5.400000e+001
      vertex -1.500000e+002 -9.200000e+001 -5.400000e+001
    endloop
  endfacet
  facet normal  0.000000e+000 -1.000000e+000  0.000000e+000
    outer loop
      vertex -1.400000e+002 -1.020000e+002 -5.400000e+001
      vertex -1.400000e+002 -1.020000e+002 -5.600000e+001
      vertex -1.000000e+001 -1.020000e+002 -5.400000e+001
    endloop
  endfacet
  facet normal  0.000000e+000 -1.000000e+000  -0.000000e+000
    outer loop
      vertex -1.000000e+001 -1.020000e+002 -5.400000e+001
      vertex -1.400000e+002 -1.020000e+002 -5.600000e+001
      vertex -1.000000e+001 -1.020000e+002 -5.600000e+001
    endloop
  endfacet
  facet normal -1.000000e+000  -0.000000e+000  0.000000e+000
    outer loop
      vertex -1.500000e+002  1.464102e+000 -5.400000e+001
      vertex -1.500000e+002  2.664535e-015 -5.546410e+001
      vertex -1.500000e+002 -2.000000e+000 -5.600000e+001
    endloop
  endfacet
  facet normal -9.999999e-001  0.000000e+000  0.000000e+000
    outer loop
      vertex -1.500000e+002 -2.000000e+000 -5.400000e+001
      vertex -1.500000e+002 -5.857865e-001 -5.341422e+001
      vertex -1.500000e+002 -2.000000e+000 -5.600000e+001
    endloop
  endfacet
  facet normal -1.000000e+000  0.000000e+000  0.000000e+000
    outer loop
      vertex -1.500000e+002 -2.000000e+000 -5.600000e+001
      vertex -1.500000e+002 -5.857865e-001 -5.341422e+001
      vertex -1.500000e+002  1.464102e+000 -5.400000e+001
    endloop
  endfacet
  facet normal -1.000000e+000  0.000000e+000  -0.000000e+000
    outer loop
      vertex -1.500000e+002 -5.857865e-001 -5.341422e+001
      vertex -1.500000e+002  0.000000e+000 -5.200000e+001
      vertex -1.500000e+002  1.464102e+000 -5.400000e+001
    endloop
  endfacet
  facet normal -1.000000e+000  0.000000e+000  0.000000e+000
    outer loop
      vertex -1.500000e+002  1.464102e+000 -5.400000e+001
      vertex -1.500000e+002  0.000000e+000 -5.200000e+001
      vertex -1.500000e+002  2.000000e+000 -5.200000e+001
    endloop
  endfacet
  facet normal  0.000000e+000  9.659258e-001 -2.588190e-001
    outer loop
      vertex -1.500000e+002  2.000000e+000 -5.200000e+001
      vertex -1.421085e-014  2.000000e+000 -5.200000e+001
      vertex -1.500000e+002  1.464102e+000 -5.400000e+001
    endloop
  endfacet
  facet normal  0.000000e+000  9.659258e-001 -2.588190e-001
    outer loop
      vertex -1.500000e+002  1.464102e+000 -5.400000e+001
      vertex -1.421085e-014  2.000000e+000 -5.200000e+001
      vertex  0.000000e+000  1.464102e+000 -5.400000e+001
    endloop
  endfacet
  facet normal  0.000000e+000  7.071064e-001 -7.071072e-001
    outer loop
      vertex -1.500000e+002  1.464102e+000 -5.400000e+001
      vertex  0.000000e+000  1.464102e+000 -5.400000e+001
      vertex -1.500000e+002  2.664535e-015 -5.546410e+001
    endloop
  endfacet
  facet normal  0.000000e+000  7.071064e-001 -7.071072e-001
    outer loop
      vertex -1.500000e+002  2.664535e-015 -5.546410e+001
      vertex  0.000000e+000  1.464102e+000 -5.400000e+001
      vertex  0.000000e+000  2.664535e-015 -5.546410e+001
    endloop
  endfacet
  facet normal  0.000000e+000  2.588198e-001 -9.659256e-001
    outer loop
      vertex -1.500000e+002  2.664535e-015 -5.546410e+001
      vertex  0.000000e+000  2.664535e-015 -5.546410e+001
      vertex -1.500000e+002 -2.000000e+000 -5.600000e+001
    endloop
  endfacet
  facet normal  0.000000e+000  2.588198e-001 -9.659256e-001
    outer loop
      vertex -1.500000e+002 -2.000000e+000 -5.600000e+001
      vertex  0.000000e+000  2.664535e-015 -5.546410e+001
      vertex  0.000000e+000 -2.000000e+000 -5.600000e+001
    endloop
  endfacet
  facet normal  0.000000e+000 -9.999999e-001  0.000000e+000
    outer loop
      vertex -1.500000e+002  0.000000e+000  5.200000e+001
      vertex -1.500000e+002  0.000000e+000 -5.200000e+001
      vertex  0.000000e+000  0.000000e+000  5.200000e+001
    endloop
  endfacet
  facet normal -1.480297e-018 -9.999999e-001  2.135044e-018
    outer loop
      vertex  0.000000e+000  0.000000e+000  5.200000e+001
      vertex -1.500000e+002  0.000000e+000 -5.200000e+001
      vertex  0.000000e+000 -2.220446e-016 -5.200000e+001
    endloop
  endfacet
  facet normal  0.000000e+000 -9.238797e-001  3.826831e-001
    outer loop
      vertex -1.500000e+002  0.000000e+000 -5.200000e+001
      vertex -1.500000e+002 -5.857865e-001 -5.341422e+001
      vertex  0.000000e+000 -2.220446e-016 -5.200000e+001
    endloop
  endfacet
  facet normal  0.000000e+000 -9.238797e-001  3.826831e-001
    outer loop
      vertex  0.000000e+000 -2.220446e-016 -5.200000e+001
      vertex -1.500000e+002 -5.857865e-001 -5.341422e+001
      vertex  0.000000e+000 -5.857865e-001 -5.341422e+001
    endloop
  endfacet
  facet normal  0.000000e+000 -3.826826e-001  9.238799e-001
    outer loop
      vertex -1.500000e+002 -5.857865e-001 -5.341422e+001
      vertex -1.500000e+002 -2.000000e+000 -5.400000e+001
      vertex  0.000000e+000 -5.857865e-001 -5.341422e+001
    endloop
  endfacet
  facet normal  0.000000e+000 -3.826826e-001  9.238799e-001
    outer loop
      vertex  0.000000e+000 -5.857865e-001 -5.341422e+001
      vertex -1.500000e+002 -2.000000e+000 -5.400000e+001
      vertex  0.000000e+000 -2.000000e+000 -5.400000e+001
    endloop
  endfacet
  facet normal  1.000000e+000  0.000000e+000  -0.000000e+000
    outer loop
      vertex  0.000000e+000 -2.000000e+000 -5.600000e+001
      vertex  0.000000e+000  2.664535e-015 -5.546410e+001
      vertex  0.000000e+000  1.464102e+000 -5.400000e+001
    endloop
  endfacet
  facet normal  9.999999e-001  0.000000e+000  0.000000e+000
    outer loop
      vertex  0.000000e+000 -2.000000e+000 -5.400000e+001
      vertex  0.000000e+000 -2.000000e+000 -5.600000e+001
      vertex  0.000000e+000 -5.857865e-001 -5.341422e+001
    endloop
  endfacet
  facet normal  1.000000e+000  0.000000e+000  0.000000e+000
    outer loop
      vertex  0.000000e+000 -5.857865e-001 -5.341422e+001
      vertex  0.000000e+000 -2.000000e+000 -5.600000e+001
      vertex  0.000000e+000  1.464102e+000 -5.400000e+001
    endloop
  endfacet
  facet normal  1.000000e+000  0.000000e+000  0.000000e+000
    outer loop
      vertex  0.000000e+000 -5.857865e-001 -5.341422e+001
      vertex  0.000000e+000  1.464102e+000 -5.400000e+001
      vertex  0.000000e+000 -2.220446e-016 -5.200000e+001
    endloop
  endfacet
  facet normal  1.000000e+000  7.105427e-015  5.201534e-015
    outer loop
      vertex  0.000000e+000 -2.220446e-016 -5.200000e+001
      vertex  0.000000e+000  1.464102e+000 -5.400000e+001
      vertex -1.421085e-014  2.000000e+000 -5.200000e+001
    endloop
  endfacet
  facet normal  1.000000e+000  7.105427e-015  0.000000e+000
    outer loop
      vertex  0.000000e+000 -2.220446e-016 -5.200000e+001
      vertex -1.421085e-014  2.000000e+000 -5.200000e+001
      vertex  0.000000e+000  0.000000e+000  5.200000e+001
    endloop
  endfacet
  facet normal  1.000000e+000  0.000000e+000 -1.366428e-016
    outer loop
      vertex  0.000000e+000  0.000000e+000  5.200000e+001
      vertex -1.421085e-014  2.000000e+000 -5.200000e+001
      vertex  0.000000e+000  2.000000e+000  5.200000e+001
    endloop
  endfacet
  facet normal  0.000000e+000  9.999999e-001  0.000000e+000
    outer loop
      vertex -1.500000e+002  2.000000e+000  5.200000e+001
      vertex  0.000000e+000  2.000000e+000  5.200000e+001
      vertex -1.500000e+002  2.000000e+000 -5.200000e+001
    endloop
  endfacet
  facet normal  0.000000e+000  9.999999e-001  0.000000e+000
    outer loop
      vertex -1.500000e+002  2.000000e+000 -5.200000e+001
      vertex  0.000000e+000  2.000000e+000  5.200000e+001
      vertex -1.421085e-014  2.000000e+000 -5.200000e+001
    endloop
  endfacet
  facet normal -1.000000e+000  0.000000e+000  0.000000e+000
    outer loop
      vertex -1.500000e+002  0.000000e+000 -5.200000e+001
      vertex -1.500000e+002  0.000000e+000  5.200000e+001
      vertex -1.500000e+002  2.000000e+000 -5.200000e+001
    endloop
  endfacet
  facet normal -1.000000e+000  0.000000e+000  0.000000e+000
    outer loop
      vertex -1.500000e+002  2.000000e+000 -5.200000e+001
      vertex -1.500000e+002  0.000000e+000  5.200000e+001
      vertex -1.500000e+002  2.000000e+000  5.200000e+001
    endloop
  endfacet
  facet normal -1.000000e+000  -0.000000e+000  -0.000000e+000
    outer loop
      vertex -1.500000e+002  8.881784e-015  5.546410e+001
      vertex -1.500000e+002  1.464102e+000  5.400000e+001
      vertex -1.500000e+002  2.000000e+000  5.200000e+001
    endloop
  endfacet
  facet normal -9.999999e-001  0.000000e+000  0.000000e+000
    outer loop
      vertex -1.500000e+002  0.000000e+000  5.200000e+001
      vertex -1.500000e+002 -5.857865e-001  5.341422e+001
      vertex -1.500000e+002  2.000000e+000  5.200000e+001
    endloop
  endfacet
  facet normal -1.000000e+000  0.000000e+000  0.000000e+000
    outer loop
      vertex -1.500000e+002  2.000000e+000  5.200000e+001
      vertex -1.500000e+002 -5.857865e-001  5.341422e+001
      vertex -1.500000e+002  8.881784e-015  5.546410e+001
    endloop
  endfacet
  facet normal -1.000000e+000  0.000000e+000  0.000000e+000
    outer loop
      vertex -1.500000e+002 -5.857865e-001  5.341422e+001
      vertex -1.500000e+002 -2.000000e+000  5.400000e+001
      vertex -1.500000e+002  8.881784e-015  5.546410e+001
    endloop
  endfacet
  facet normal -1.000000e+000  -0.000000e+000  0.000000e+000
    outer loop
      vertex -1.500000e+002  8.881784e-015  5.546410e+001
      vertex -1.500000e+002 -2.000000e+000  5.400000e+001
      vertex -1.500000e+002 -2.000000e+000  5.600000e+001
    endloop
  endfacet
  facet normal  0.000000e+000  2.588198e-001  9.659256e-001
    outer loop
      vertex -1.500000e+002 -2.000000e+000  5.600000e+001
      vertex  1.421085e-014 -2.000000e+000  5.600000e+001
      vertex -1.500000e+002  8.881784e-015  5.546410e+001
    endloop
  endfacet
  facet normal  1.455895e-017  2.588198e-001  9.659256e-001
    outer loop
      vertex -1.500000e+002  8.881784e-015  5.546410e+001
      vertex  1.421085e-014 -2.000000e+000  5.600000e+001
      vertex  0.000000e+000  4.440892e-016  5.546410e+001
    endloop
  endfacet
  facet normal  3.977565e-017  7.071064e-001  7.071072e-001
    outer loop
      vertex -1.500000e+002  8.881784e-015  5.546410e+001
      vertex  0.000000e+000  4.440892e-016  5.546410e+001
      vertex -1.500000e+002  1.464102e+000  5.400000e+001
    endloop
  endfacet
  facet normal  -0.000000e+000  7.071064e-001  7.071072e-001
    outer loop
      vertex -1.500000e+002  1.464102e+000  5.400000e+001
      vertex  0.000000e+000  4.440892e-016  5.546410e+001
      vertex  0.000000e+000  1.464102e+000  5.400000e+001
    endloop
  endfacet
  facet normal  0.000000e+000  9.659258e-001  2.588190e-001
    outer loop
      vertex -1.500000e+002  1.464102e+000  5.400000e+001
      vertex  0.000000e+000  1.464102e+000  5.400000e+001
      vertex -1.500000e+002  2.000000e+000  5.200000e+001
    endloop
  endfacet
  facet normal  -0.000000e+000  9.659258e-001  2.588190e-001
    outer loop
      vertex -1.500000e+002  2.000000e+000  5.200000e+001
      vertex  0.000000e+000  1.464102e+000  5.400000e+001
      vertex  0.000000e+000  2.000000e+000  5.200000e+001
    endloop
  endfacet
  facet normal  1.000000e+000  0.000000e+000  0.000000e+000
    outer loop
      vertex  0.000000e+000  2.000000e+000  5.200000e+001
      vertex  0.000000e+000  1.464102e+000  5.400000e+001
      vertex  0.000000e+000  4.440892e-016  5.546410e+001
    endloop
  endfacet
  facet normal  9.999999e-001  0.000000e+000  0.000000e+000
    outer loop
      vertex  0.000000e+000  0.000000e+000  5.200000e+001
      vertex  0.000000e+000  2.000000e+000  5.200000e+001
      vertex  0.000000e+000 -5.857865e-001  5.341422e+001
    endloop
  endfacet
  facet normal  1.000000e+000  -0.000000e+000  0.000000e+000
    outer loop
      vertex  0.000000e+000 -5.857865e-001  5.341422e+001
      vertex  0.000000e+000  2.000000e+000  5.200000e+001
      vertex  0.000000e+000  4.440892e-016  5.546410e+001
    endloop
  endfacet
  facet normal  1.000000e+000  0.000000e+000  0.000000e+000
    outer loop
      vertex  0.000000e+000 -5.857865e-001  5.341422e+001
      vertex  0.000000e+000  4.440892e-016  5.546410e+001
      vertex  0.000000e+000 -2.000000e+000  5.400000e+001
    endloop
  endfacet
  facet normal  1.000000e+000  5.201528e-015 -7.105427e-015
    outer loop
      vertex  0.000000e+000 -2.000000e+000  5.400000e+001
      vertex  0.000000e+000  4.440892e-016  5.546410e+001
      vertex  1.421085e-014 -2.000000e+000  5.600000e+001
    endloop
  endfacet
  facet normal  0.000000e+000 -3.826826e-001 -9.238799e-001
    outer loop
      vertex -1.500000e+002 -2.000000e+000  5.400000e+001
      vertex -1.500000e+002 -5.857865e-001  5.341422e+001
      vertex  0.000000e+000 -2.000000e+000  5.400000e+001
    endloop
  endfacet
  facet normal  0.000000e+000 -3.826826e-001 -9.238799e-001
    outer loop
      vertex  0.000000e+000 -2.000000e+000  5.400000e+001
      vertex -1.500000e+002 -5.857865e-001  5.341422e+001
      vertex  0.000000e+000 -5.857865e-001  5.341422e+001
    endloop
  endfacet
  facet normal  0.000000e+000 -9.238797e-001 -3.826831e-001
    outer loop
      vertex -1.500000e+002 -5.857865e-001  5.341422e+001
      vertex -1.500000e+002  0.000000e+000  5.200000e+001
      vertex  0.000000e+000 -5.857865e-001  5.341422e+001
    endloop
  endfacet
  facet normal  0.000000e+000 -9.238797e-001 -3.826831e-001
    outer loop
      vertex  0.000000e+000 -5.857865e-001  5.341422e+001
      vertex -1.500000e+002  0.000000e+000  5.200000e+001
      vertex  0.000000e+000  0.000000e+000  5.200000e+001
    endloop
  endfacet
endsolid CATIA STL
